<svg id="Слой_1" data-name="Слой 1" xmlns="http://www.w3.org/2000/svg" xmlns:xlink="http://www.w3.org/1999/xlink" viewBox="0 0 282 410"><defs><style>.cls-1{fill:#fff;}.cls-2{fill:#3e3e3d;}.cls-3{fill:#d05260;}.cls-4{fill:#4e4e50;}.cls-5{fill:#a5a6a9;}.cls-6{fill:#4275bb;}.cls-7{fill:#979797;}.cls-8{fill:#cacaca;}.cls-9{fill:#cfd1d2;}.cls-10{fill:url(#linear-gradient);}.cls-11{fill:#757575;}</style><linearGradient id="linear-gradient" x1="15.69" y1="168.8" x2="266.08" y2="168.8" gradientUnits="userSpaceOnUse"><stop offset="0" stop-color="#c1c1c1"/><stop offset="0.34" stop-color="#d2d2d2"/><stop offset="0.66" stop-color="#dedddd"/></linearGradient></defs><title>wedding_insta</title><rect class="cls-1" width="282" height="410"/><path class="cls-2" d="M264.38,300.88H250.94a1.7,1.7,0,0,0-1.69,1.7v16.11a1.21,1.21,0,0,0,.71,1.12,1.23,1.23,0,0,0,.52.12,1.26,1.26,0,0,0,.8-.3l6.38-5.47,6.38,5.47h0a1.25,1.25,0,0,0,1.32.18,1.22,1.22,0,0,0,.72-1.12V302.58A1.7,1.7,0,0,0,264.38,300.88Zm.69,17.81a.23.23,0,0,1-.13.21.24.24,0,0,1-.25,0h0l-6.7-5.75a.49.49,0,0,0-.66,0l-6.7,5.75a.24.24,0,0,1-.25,0,.23.23,0,0,1-.13-.21V302.58a.7.7,0,0,1,.69-.7h13.44a.7.7,0,0,1,.69.7Z"/><path class="cls-3" d="M34.66,310.32a5.84,5.84,0,0,1-1.9,2.73l-7.13,5.77a.51.51,0,0,1-.31.11.56.56,0,0,1-.32-.11l-7.13-5.77A5.82,5.82,0,0,1,16,310.32,6.14,6.14,0,0,1,17.61,304a5.47,5.47,0,0,1,5.85-1.07,4.79,4.79,0,0,1,1.86,1.58,4.65,4.65,0,0,1,1.86-1.58A5.47,5.47,0,0,1,33,304,6.14,6.14,0,0,1,34.66,310.32Z"/><path class="cls-2" d="M66.2,307.89a8.59,8.59,0,1,0-5.08,10,1.12,1.12,0,0,1,.74-.05l2.4.73a1.26,1.26,0,0,0,.38.06,1.2,1.2,0,0,0,.84-.33,1.26,1.26,0,0,0,.41-1.18l-.49-2.61a1.05,1.05,0,0,1,.11-.69h0A8.49,8.49,0,0,0,66.2,307.89Zm-1.58,5.43h0a2.12,2.12,0,0,0-.21,1.34l.49,2.6a.28.28,0,0,1-.08.26.25.25,0,0,1-.26.05l-2.4-.73a2,2,0,0,0-.58-.09,2.34,2.34,0,0,0-.85.17,7.61,7.61,0,1,1,3.89-3.6Z"/><path class="cls-2" d="M100.8,302.5a.51.51,0,0,0-.45-.28h-19a.5.5,0,0,0-.32.88l6.68,5.73,0,10.14a.5.5,0,0,0,.34.48.41.41,0,0,0,.16,0,.51.51,0,0,0,.4-.2L100.75,303A.51.51,0,0,0,100.8,302.5Zm-18.13.72H98.16L88.25,308Zm6,5.69,10-4.85-10,13.41Z"/><path class="cls-4" d="M17.27,327.41v2.74h3.17v-2.74h.86V334h-.86v-3.07H17.27V334h-.84v-6.55Z"/><path class="cls-4" d="M22.73,330.79c0-.6,0-1.09,0-1.54h.77l0,.81h0a1.85,1.85,0,0,1,1.67-.91,2.13,2.13,0,0,1,2,2.39A2.22,2.22,0,0,1,25,334.06a1.64,1.64,0,0,1-1.44-.73h0v2.55h-.85Zm.85,1.25a1.78,1.78,0,0,0,0,.35,1.31,1.31,0,0,0,1.28,1c.9,0,1.43-.73,1.43-1.81s-.5-1.75-1.4-1.75a1.37,1.37,0,0,0-1.3,1.06,1.84,1.84,0,0,0-.05.35Z"/><path class="cls-4" d="M30.86,334l-.06-.59h0a1.79,1.79,0,0,1-1.44.69,1.34,1.34,0,0,1-1.44-1.35c0-1.13,1-1.76,2.83-1.75v-.09a1,1,0,0,0-1.07-1.09,2.3,2.3,0,0,0-1.23.35l-.19-.57a2.94,2.94,0,0,1,1.55-.41c1.43,0,1.78,1,1.78,1.92v1.76a6.45,6.45,0,0,0,.08,1.13Zm-.12-2.4c-.94,0-2,.14-2,1.06a.75.75,0,0,0,.8.81,1.19,1.19,0,0,0,1.14-.78.92.92,0,0,0,0-.28Z"/><path class="cls-4" d="M32.92,329.31a10,10,0,0,1,1.5-.1c.79,0,2.09.12,2.09,1.17a1.12,1.12,0,0,1-1,1.06v0c.69.1,1.19.49,1.19,1.17,0,1.23-1.55,1.39-2.47,1.39-.53,0-1.07,0-1.33-.06Zm.81,4.08a5,5,0,0,0,.69,0c.57,0,1.43-.13,1.43-.81s-.68-.83-1.5-.83h-.62Zm0-2.16h.64c.63,0,1.28-.19,1.28-.74s-.4-.69-1.26-.69a5.83,5.83,0,0,0-.66,0Z"/><path class="cls-4" d="M38.59,329.25v2c0,.75,0,1.21-.05,1.88h0c.28-.57.45-.9.76-1.45l1.46-2.43h1V334H41v-2c0-.77,0-1.17.06-1.93h0c-.3.6-.51,1-.78,1.46-.45.73-1,1.63-1.47,2.46h-1v-4.71Z"/><path class="cls-4" d="M46.33,329.25v.68H44.86v4H44v-4H42.55v-.68Z"/><path class="cls-4" d="M50.31,333.78a3.1,3.1,0,0,1-1.35.28,2.25,2.25,0,0,1-2.35-2.41,2.39,2.39,0,0,1,2.53-2.49,2.84,2.84,0,0,1,1.19.24l-.2.66a1.93,1.93,0,0,0-1-.22,1.77,1.77,0,0,0,0,3.54,2.35,2.35,0,0,0,1-.24Z"/><path class="cls-4" d="M54.82,334H54v-2h-.63a1.09,1.09,0,0,0-.79.26,3.16,3.16,0,0,0-.66,1.32,3.55,3.55,0,0,1-.2.39h-.91a3,3,0,0,0,.29-.54,3.72,3.72,0,0,1,.74-1.42,1.21,1.21,0,0,1,.53-.27v0a1.25,1.25,0,0,1-1.24-1.16,1.12,1.12,0,0,1,.62-1,3.25,3.25,0,0,1,1.58-.32,12.77,12.77,0,0,1,1.51.09ZM54,329.82a4.73,4.73,0,0,0-.71-.05c-.58,0-1.27.16-1.27.81s.74.82,1.25.82H54Z"/><path class="cls-4" d="M117.45,335.15a14.56,14.56,0,0,0,.58-2.32l1-.1a11.86,11.86,0,0,1-.92,2.37Z"/><path class="cls-4" d="M168.17,329.25v2c0,.75,0,1.21,0,1.88h0c.28-.57.45-.9.76-1.45l1.47-2.43h1V334h-.82v-2c0-.77,0-1.17.06-1.93h0c-.3.6-.5,1-.78,1.46-.44.73-1,1.63-1.46,2.46h-1v-4.71Z"/><path class="cls-4" d="M62.44,331.55A2.34,2.34,0,0,1,60,334.06a2.28,2.28,0,0,1-2.37-2.43,2.33,2.33,0,0,1,2.44-2.51A2.28,2.28,0,0,1,62.44,331.55Zm-3.57.05c0,.91.45,1.6,1.18,1.6s1.15-.67,1.15-1.62c0-.74-.33-1.59-1.14-1.59S58.87,330.81,58.87,331.6Z"/><path class="cls-4" d="M63.42,327.06h1.2V334h-1.2Z"/><path class="cls-4" d="M67.11,331.3h0c.12-.18.25-.38.38-.55l1.14-1.53h1.44l-1.75,1.94,2,2.8H68.88l-1.36-2.09-.41.47V334h-1.2v-6.9h1.2Z"/><path class="cls-4" d="M73.63,334l-.08-.53h0a1.76,1.76,0,0,1-1.4.63,1.4,1.4,0,0,1-1.49-1.4c0-1.2,1.06-1.8,2.81-1.79v-.08c0-.31-.12-.83-1-.83a2.55,2.55,0,0,0-1.27.35l-.23-.77a3.31,3.31,0,0,1,1.71-.42,1.77,1.77,0,0,1,2,2v1.71a7.39,7.39,0,0,0,.07,1.14Zm-.16-2.32c-.84,0-1.65.17-1.65.89a.62.62,0,0,0,.68.68,1,1,0,0,0,.93-.65.87.87,0,0,0,0-.26Z"/><path class="cls-4" d="M76,334v-3.84H75.4v-.9H76V329a2.2,2.2,0,0,1,.57-1.61,1.83,1.83,0,0,1,1.24-.46,2.2,2.2,0,0,1,.76.12l-.08.92a1.41,1.41,0,0,0-.51-.09c-.59,0-.8.5-.8,1.08v.24h1v.9h-1V334Z"/><path class="cls-4" d="M81.66,334l-.07-.53h0a1.76,1.76,0,0,1-1.4.63,1.4,1.4,0,0,1-1.49-1.4c0-1.2,1.06-1.8,2.81-1.79v-.08c0-.31-.13-.83-1-.83a2.56,2.56,0,0,0-1.28.35l-.23-.77a3.34,3.34,0,0,1,1.71-.42,1.76,1.76,0,0,1,2,2v1.71a7.39,7.39,0,0,0,.07,1.14Zm-.15-2.32c-.85,0-1.65.17-1.65.89a.62.62,0,0,0,.68.68,1,1,0,0,0,.93-.65.87.87,0,0,0,0-.26Z"/><path class="cls-4" d="M83.94,330.63c0-.54,0-1,0-1.41h1l0,.71h0a1.71,1.71,0,0,1,1.51-.81c.83,0,1.68.53,1.68,2V334H87v-2.67c0-.69-.26-1.2-.91-1.2a1,1,0,0,0-.93.7,1.19,1.19,0,0,0,0,.39V334h-1.2Z"/><path class="cls-4" d="M93.86,327.06v5.57c0,.48,0,1,0,1.33H92.83l0-.75h0a1.71,1.71,0,0,1-1.55.85,2.17,2.17,0,0,1-2-2.42,2.25,2.25,0,0,1,2.12-2.52,1.5,1.5,0,0,1,1.33.62h0v-2.68Zm-1.2,4.14a1.55,1.55,0,0,0,0-.31,1,1,0,0,0-1-.85c-.77,0-1.19.68-1.19,1.57s.42,1.49,1.18,1.49a1,1,0,0,0,1-.84,1.34,1.34,0,0,0,0-.35Z"/><path class="cls-4" d="M96.41,327.9a.67.67,0,1,1-.67-.65A.63.63,0,0,1,96.41,327.9ZM95.14,334v-4.74h1.2V334Z"/><path class="cls-4" d="M98.82,331.3h0c.12-.18.25-.38.38-.55l1.15-1.53h1.43l-1.74,1.94,2,2.8h-1.47l-1.36-2.09-.41.47V334H97.63v-6.9h1.19Z"/><path class="cls-4" d="M107,331.55a2.34,2.34,0,0,1-2.43,2.51,2.28,2.28,0,0,1-2.37-2.43,2.34,2.34,0,0,1,2.45-2.51A2.27,2.27,0,0,1,107,331.55Zm-3.56.05c0,.91.44,1.6,1.17,1.6s1.16-.67,1.16-1.62c0-.74-.33-1.59-1.15-1.59S103.44,330.81,103.44,331.6Z"/><path class="cls-4" d="M108.66,329.22l.77,2.41a11.59,11.59,0,0,1,.32,1.18h0c.09-.39.2-.76.32-1.18l.75-2.41h1.26l-1.8,4.74h-1.18l-1.76-4.74Z"/><path class="cls-4" d="M115.45,334l-.08-.53h0a1.76,1.76,0,0,1-1.4.63,1.4,1.4,0,0,1-1.49-1.4c0-1.2,1.06-1.8,2.81-1.79v-.08c0-.31-.13-.83-1-.83a2.59,2.59,0,0,0-1.28.35l-.23-.77a3.34,3.34,0,0,1,1.71-.42,1.77,1.77,0,0,1,2,2v1.71a9.12,9.12,0,0,0,.06,1.14Zm-.16-2.32c-.85,0-1.65.17-1.65.89a.62.62,0,0,0,.68.68,1,1,0,0,0,.93-.65.87.87,0,0,0,0-.26Z"/><path class="cls-4" d="M122.5,329.22l.77,2.41c.13.41.23.79.32,1.18h0c.08-.39.19-.76.32-1.18l.74-2.41H126L124.14,334H123l-1.75-4.74Z"/><path class="cls-4" d="M129.28,334l-.08-.53h0a1.74,1.74,0,0,1-1.4.63,1.39,1.39,0,0,1-1.48-1.4c0-1.2,1.06-1.8,2.81-1.79v-.08c0-.31-.13-.83-1-.83a2.55,2.55,0,0,0-1.27.35l-.23-.77a3.34,3.34,0,0,1,1.71-.42,1.77,1.77,0,0,1,1.95,2v1.71a7.39,7.39,0,0,0,.07,1.14Zm-.15-2.32c-.85,0-1.66.17-1.66.89a.62.62,0,0,0,.68.68,1,1,0,0,0,.94-.65.87.87,0,0,0,0-.26Z"/><path class="cls-4" d="M131.49,332.86a2.65,2.65,0,0,0,1.22.34c.52,0,.76-.21.76-.53s-.2-.48-.78-.68c-.92-.33-1.31-.83-1.3-1.39,0-.83.69-1.48,1.79-1.48a2.72,2.72,0,0,1,1.25.28l-.23.85a2.13,2.13,0,0,0-1-.28c-.43,0-.67.21-.67.5s.23.45.83.66c.86.31,1.25.75,1.26,1.45,0,.85-.67,1.48-1.92,1.48a3,3,0,0,1-1.44-.34Z"/><path class="cls-4" d="M135.6,330.63c0-.54,0-1,0-1.41h1l0,.7h0a1.64,1.64,0,0,1,1.46-.8,1.36,1.36,0,0,1,1.31.87h0a1.84,1.84,0,0,1,.59-.59,1.53,1.53,0,0,1,.95-.28c.79,0,1.58.53,1.58,2.05V334h-1.16v-2.62c0-.78-.28-1.25-.85-1.25a.92.92,0,0,0-.84.63,2.43,2.43,0,0,0,0,.4V334h-1.17v-2.74c0-.66-.26-1.13-.82-1.13a.94.94,0,0,0-.85.68,1,1,0,0,0-.07.39V334H135.6Z"/><path class="cls-4" d="M148.34,331.55a2.34,2.34,0,0,1-2.43,2.51,2.28,2.28,0,0,1-2.37-2.43,2.34,2.34,0,0,1,2.45-2.51A2.27,2.27,0,0,1,148.34,331.55Zm-3.56.05c0,.91.44,1.6,1.17,1.6s1.16-.67,1.16-1.62c0-.74-.33-1.59-1.15-1.59S144.78,330.81,144.78,331.6Z"/><path class="cls-4" d="M150,329.22l.77,2.41a11.59,11.59,0,0,1,.32,1.18h0c.09-.39.2-.76.32-1.18l.75-2.41h1.26l-1.8,4.74h-1.18l-1.76-4.74Z"/><path class="cls-4" d="M153.73,333.27l1.78-2.28c.24-.29.45-.52.7-.79v0h-2.3v-1h3.76V330l-1.74,2.23c-.23.28-.46.55-.7.81v0h2.5V334h-4Z"/><path class="cls-4" d="M158.55,327.06h1.21v2.82h0a1.57,1.57,0,0,1,.59-.55,1.66,1.66,0,0,1,.82-.21c.8,0,1.65.53,1.65,2.05V334h-1.2V331.3c0-.69-.25-1.2-.91-1.2a1,1,0,0,0-.92.67,1,1,0,0,0-.05.36V334h-1.21Z"/><path class="cls-4" d="M177,331.93a1.29,1.29,0,0,0,1.46,1.22,3.7,3.7,0,0,0,1.31-.21l.18.82a4.36,4.36,0,0,1-1.66.3,2.24,2.24,0,0,1-2.43-2.4,2.33,2.33,0,0,1,2.31-2.54,2.06,2.06,0,0,1,2,2.3,3,3,0,0,1,0,.51Zm2.08-.84a1,1,0,0,0-1-1.16,1.17,1.17,0,0,0-1.1,1.16Z"/><path class="cls-4" d="M182.37,329.22V333h1.38v-3.81h1.18V333h1.38v-3.81h1.18v3.87l.51,0-.06,2.36H187L187,334h-5.8v-4.74Z"/><path class="cls-4" d="M189.69,331.93a1.29,1.29,0,0,0,1.46,1.22,3.7,3.7,0,0,0,1.31-.21l.18.82a4.4,4.4,0,0,1-1.66.3,2.25,2.25,0,0,1-2.44-2.4,2.34,2.34,0,0,1,2.32-2.54,2.06,2.06,0,0,1,2,2.3,3,3,0,0,1,0,.51Zm2.08-.84a1,1,0,0,0-1-1.16,1.17,1.17,0,0,0-1.1,1.16Z"/><path class="cls-4" d="M197.52,328.72h0l-1.15.58-.21-.9,1.54-.76h1V334h-1.16Z"/><path class="cls-4" d="M200.85,334v-.73l.75-.69c1.49-1.38,2.19-2.14,2.2-3a1,1,0,0,0-1.13-1.06,2.33,2.33,0,0,0-1.35.53l-.35-.85a3.2,3.2,0,0,1,1.95-.65,1.88,1.88,0,0,1,2.08,1.92c0,1.11-.8,2-1.9,3l-.55.48v0h2.59v1Z"/><path class="cls-4" d="M206.3,332.72a3.12,3.12,0,0,0,1.44.39c.92,0,1.29-.51,1.28-1,0-.75-.7-1.07-1.43-1.07H207v-.87h.54c.55,0,1.25-.25,1.25-.89,0-.42-.32-.78-1-.78a2.59,2.59,0,0,0-1.29.39l-.27-.86a3.43,3.43,0,0,1,1.81-.49c1.31,0,2,.72,2,1.55a1.55,1.55,0,0,1-1.17,1.48v0a1.58,1.58,0,0,1,1.39,1.57c0,1.07-.89,1.91-2.46,1.91a3.49,3.49,0,0,1-1.77-.43Z"/><path class="cls-5" d="M17,389H15.68v-.48h3.25V389H17.59v3.91H17Z"/><path class="cls-5" d="M22.94,390.67a2.06,2.06,0,0,1-2,2.31,2,2,0,0,1-2-2.22,2.09,2.09,0,0,1,2-2.31A2,2,0,0,1,22.94,390.67Zm-3.4.07c0,.94.5,1.78,1.4,1.78s1.4-.83,1.4-1.82-.45-1.79-1.4-1.79S19.54,389.78,19.54,390.74Z"/><path class="cls-5" d="M26.54,388.52v4.39H26V389H24.51v1.33c0,.95,0,2-.66,2.43a1.36,1.36,0,0,1-.67.2l-.07-.45a1,1,0,0,0,.46-.24,3,3,0,0,0,.39-1.9v-1.85Z"/><path class="cls-5" d="M28.08,388.52v1.64a4.63,4.63,0,0,1,.54,0c.9,0,1.7.4,1.7,1.37a1.33,1.33,0,0,1-.34.94,2.22,2.22,0,0,1-1.58.51,7.87,7.87,0,0,1-.88-.05v-4.38Zm0,4a3.09,3.09,0,0,0,.47,0c.63,0,1.18-.31,1.18-1s-.56-.95-1.18-.95a3.71,3.71,0,0,0-.47,0Z"/><path class="cls-5" d="M31.61,388.52v2h.17l1.51-2H34l-1.66,2a1.48,1.48,0,0,1,1.23,1.14,11.87,11.87,0,0,0,.48,1.24h-.61a7.87,7.87,0,0,1-.4-1,1.18,1.18,0,0,0-1.22-1h-.18v2H31v-4.39Z"/><path class="cls-5" d="M38.2,390.67a2.06,2.06,0,0,1-2,2.31,2,2,0,0,1-2-2.22,2.09,2.09,0,0,1,2-2.31A2,2,0,0,1,38.2,390.67Zm-3.41.07c0,.94.51,1.78,1.41,1.78s1.4-.83,1.4-1.82-.45-1.79-1.4-1.79S34.79,389.78,34.79,390.74Z"/><path class="cls-5" d="M40.85,388.52v1.4a.83.83,0,0,0,.93.93,1.77,1.77,0,0,0,.87-.24v-2.09h.57v4.39h-.57v-1.86h0a2.16,2.16,0,0,1-1.05.27,1.18,1.18,0,0,1-1.3-1.32v-1.48Z"/><path class="cls-5" d="M45,389H43.7v-.48H47V389H45.61v3.91H45Z"/><path class="cls-5" d="M51,390.67a2.06,2.06,0,0,1-2,2.31,2,2,0,0,1-2-2.22,2.09,2.09,0,0,1,2-2.31A2,2,0,0,1,51,390.67Zm-3.41.07c0,.94.51,1.78,1.41,1.78s1.4-.83,1.4-1.82-.45-1.79-1.4-1.79S47.55,389.78,47.55,390.74Z"/><path class="cls-4" d="M21.38,346.3c0,.56,0,1,0,1.42H20.37l-.06-.72h0a1.7,1.7,0,0,1-1.51.83c-.87,0-1.65-.52-1.65-2.06V343h1.19v2.57c0,.79.25,1.29.89,1.29a1,1,0,0,0,1-1V343h1.19Z"/><path class="cls-4" d="M22.61,346.62a2.65,2.65,0,0,0,1.22.34c.52,0,.76-.21.76-.52s-.2-.49-.78-.69c-.92-.32-1.31-.83-1.3-1.38a1.58,1.58,0,0,1,1.79-1.49,2.85,2.85,0,0,1,1.25.28l-.23.85a2.13,2.13,0,0,0-1-.28c-.43,0-.67.21-.67.5s.23.45.83.66c.86.31,1.25.75,1.26,1.45,0,.86-.67,1.48-1.92,1.48a3.13,3.13,0,0,1-1.44-.33Z"/><path class="cls-4" d="M27.57,345.69A1.29,1.29,0,0,0,29,346.91a3.7,3.7,0,0,0,1.31-.21l.17.83a4.52,4.52,0,0,1-1.65.29,2.25,2.25,0,0,1-2.44-2.39,2.35,2.35,0,0,1,2.32-2.55,2.06,2.06,0,0,1,2,2.3,2.89,2.89,0,0,1,0,.51Zm2.08-.84a1,1,0,0,0-1-1.15,1.17,1.17,0,0,0-1.1,1.15Z"/><path class="cls-4" d="M31.74,344.51c0-.64,0-1.1,0-1.52h1l0,.9h0a1.4,1.4,0,0,1,1.29-1,1.2,1.2,0,0,1,.28,0V344a1.61,1.61,0,0,0-.35,0,1.06,1.06,0,0,0-1.07.9,2,2,0,0,0,0,.37v2.45H31.74Z"/><path class="cls-4" d="M35.2,344.4c0-.55,0-1,0-1.41h1.05l.06.71h0a1.72,1.72,0,0,1,1.51-.82c.83,0,1.68.53,1.68,2v2.81H38.29v-2.67c0-.68-.26-1.2-.91-1.2a1,1,0,0,0-.93.7,1.19,1.19,0,0,0-.05.39v2.78H35.2Z"/><path class="cls-4" d="M43.42,347.72l-.08-.52h0a1.79,1.79,0,0,1-1.4.63,1.41,1.41,0,0,1-1.49-1.41c0-1.2,1.06-1.8,2.81-1.79v-.08c0-.31-.12-.83-1-.83a2.43,2.43,0,0,0-1.27.36l-.24-.78a3.36,3.36,0,0,1,1.71-.42,1.77,1.77,0,0,1,2,2v1.71a7.39,7.39,0,0,0,.07,1.14Zm-.16-2.31c-.84,0-1.65.16-1.65.88a.62.62,0,0,0,.68.68,1,1,0,0,0,.93-.65.82.82,0,0,0,0-.26Z"/><path class="cls-4" d="M45.69,344.4c0-.55,0-1,0-1.41h1l0,.7h0a1.63,1.63,0,0,1,1.46-.81,1.37,1.37,0,0,1,1.31.87h0a1.82,1.82,0,0,1,.58-.59,1.6,1.6,0,0,1,.95-.28c.79,0,1.59.53,1.59,2.05v2.79H51.5v-2.61c0-.79-.27-1.26-.84-1.26a.92.92,0,0,0-.84.63,1.76,1.76,0,0,0-.06.4v2.84H48.6V345c0-.66-.27-1.13-.82-1.13a.94.94,0,0,0-.86.68,1,1,0,0,0-.06.39v2.8H45.69Z"/><path class="cls-4" d="M54.77,345.69a1.29,1.29,0,0,0,1.46,1.22,3.66,3.66,0,0,0,1.31-.21l.18.83a4.57,4.57,0,0,1-1.65.29,2.24,2.24,0,0,1-2.44-2.39,2.34,2.34,0,0,1,2.31-2.55,2.05,2.05,0,0,1,2,2.3,2.89,2.89,0,0,1,0,.51Zm2.08-.84a1,1,0,0,0-1-1.15,1.17,1.17,0,0,0-1.1,1.15Z"/><path class="cls-4" d="M62.43,343v2h.21l1.77-2h1l-2.05,2.12c.75.08,1.21.59,1.58,1.43a9.76,9.76,0,0,0,.51,1.15h-.9a6,6,0,0,1-.44-1,1.52,1.52,0,0,0-1.55-1.11h-.17v2.07h-.84V343Z"/><path class="cls-4" d="M68.94,347.72l-.06-.59h0a1.77,1.77,0,0,1-1.44.7A1.34,1.34,0,0,1,66,346.48c0-1.14,1-1.76,2.83-1.75v-.1a1,1,0,0,0-1.07-1.09,2.39,2.39,0,0,0-1.23.35l-.19-.56a2.85,2.85,0,0,1,1.54-.42c1.44,0,1.79,1,1.79,1.92v1.76a6.45,6.45,0,0,0,.08,1.13Zm-.12-2.4c-.94,0-2,.14-2,1.06a.76.76,0,0,0,.81.82,1.18,1.18,0,0,0,1.14-.79.91.91,0,0,0,0-.27Z"/><path class="cls-4" d="M71.87,343v2h.2l1.77-2h1l-2,2.12c.76.08,1.21.59,1.58,1.43a11.76,11.76,0,0,0,.51,1.15H74a6.12,6.12,0,0,1-.43-1A1.53,1.53,0,0,0,72,345.65h-.16v2.07H71V343Z"/><path class="cls-4" d="M79.87,345.33a2.3,2.3,0,0,1-2.34,2.5,2.24,2.24,0,0,1-2.25-2.42,2.3,2.3,0,0,1,2.33-2.5A2.22,2.22,0,0,1,79.87,345.33Zm-3.73.05c0,1,.59,1.81,1.43,1.81s1.43-.77,1.43-1.83c0-.8-.4-1.81-1.41-1.81S76.14,344.48,76.14,345.38Z"/><path class="cls-4" d="M81.74,343v2c0,.75,0,1.21,0,1.88h0c.28-.57.45-.9.76-1.44L83.94,343h1v4.7h-.82v-2c0-.77,0-1.17.06-1.93h0c-.3.61-.51,1-.78,1.46-.45.73-1,1.63-1.47,2.46h-1V343Zm.55-1.92c0,.42.24.74.62.74s.62-.31.67-.74h.61a1.18,1.18,0,0,1-1.3,1.21,1.14,1.14,0,0,1-1.22-1.21Z"/><path class="cls-4" d="M88.32,344.77v.64h-2.4v-.64Z"/><path class="cls-4" d="M92.49,343v.68H91v4h-.85v-4H88.71V343Z"/><path class="cls-4" d="M97.37,345.33a2.3,2.3,0,0,1-2.34,2.5,2.25,2.25,0,0,1-2.26-2.42,2.3,2.3,0,0,1,2.34-2.5A2.22,2.22,0,0,1,97.37,345.33Zm-3.73.05c0,1,.59,1.81,1.43,1.81s1.43-.77,1.43-1.83c0-.8-.4-1.81-1.41-1.81S93.64,344.48,93.64,345.38Z"/><path class="cls-4" d="M101.35,343v2h.21l1.77-2h1l-2.05,2.12c.75.08,1.21.59,1.58,1.43a9.76,9.76,0,0,0,.51,1.15h-.9a7,7,0,0,1-.44-1,1.52,1.52,0,0,0-1.55-1.11h-.17v2.07h-.84V343Z"/><path class="cls-4" d="M109.36,345.33a2.3,2.3,0,0,1-2.34,2.5,2.25,2.25,0,0,1-2.26-2.42,2.3,2.3,0,0,1,2.34-2.5A2.22,2.22,0,0,1,109.36,345.33Zm-3.73.05c0,1,.59,1.81,1.43,1.81s1.43-.77,1.43-1.83c0-.8-.4-1.81-1.41-1.81S105.63,344.48,105.63,345.38Z"/><path class="cls-4" d="M110.49,343h1.05l.85,2.37c.12.35.32.92.43,1.29h0c.11-.35.37-1.1.55-1.61l.76-2.05h1.06l.33,4.7h-.82l-.1-2.25c0-.5-.07-1.1-.09-1.68h0c-.13.43-.25.81-.51,1.53l-.91,2.37h-.62l-.84-2.32c-.14-.45-.35-1.13-.46-1.57h0c0,.56-.05,1.18-.08,1.69l-.12,2.23h-.78Z"/><path class="cls-4" d="M116.69,343h1l.86,2.37c.12.35.32.92.43,1.29h0c.1-.35.37-1.1.55-1.61l.76-2.05h1.06l.33,4.7h-.82l-.1-2.25c0-.5-.07-1.1-.09-1.68h0c-.13.43-.25.81-.52,1.53l-.9,2.37h-.62l-.84-2.32c-.14-.45-.35-1.13-.46-1.57h0c0,.56,0,1.18-.08,1.69l-.12,2.23h-.79Z"/><path class="cls-4" d="M123.33,345.52a1.51,1.51,0,0,0,1.61,1.64,3,3,0,0,0,1.31-.25l.14.62a3.88,3.88,0,0,1-1.56.29,2.19,2.19,0,0,1-2.32-2.37,2.29,2.29,0,0,1,2.21-2.54,2,2,0,0,1,2,2.22,2.94,2.94,0,0,1,0,.39Zm2.51-.61a1.22,1.22,0,0,0-1.19-1.39,1.42,1.42,0,0,0-1.31,1.39Z"/><path class="cls-4" d="M128.55,343v1.89h2.23V343h.85v4.7h-.85v-2.13h-2.23v2.13h-.85V343Z"/><path class="cls-4" d="M136.18,343v.68h-1.47v4h-.85v-4h-1.47V343Z"/><path class="cls-4" d="M139.46,347.72l-.07-.59h0a1.75,1.75,0,0,1-1.44.7,1.33,1.33,0,0,1-1.43-1.35c0-1.14,1-1.76,2.82-1.75v-.1a1,1,0,0,0-1.06-1.09,2.39,2.39,0,0,0-1.23.35l-.19-.56a2.82,2.82,0,0,1,1.54-.42c1.44,0,1.79,1,1.79,1.92v1.76a6.45,6.45,0,0,0,.08,1.13Zm-.13-2.4c-.93,0-2,.14-2,1.06a.76.76,0,0,0,.81.82,1.18,1.18,0,0,0,1.14-.79,1.36,1.36,0,0,0,0-.27Z"/><path class="cls-4" d="M141.54,344.55c0-.6,0-1.09,0-1.53h.77l0,.8h0a1.84,1.84,0,0,1,1.67-.91,2.13,2.13,0,0,1,2,2.39,2.23,2.23,0,0,1-2.14,2.53,1.67,1.67,0,0,1-1.45-.74h0v2.55h-.84Zm.84,1.25a2,2,0,0,0,0,.36,1.33,1.33,0,0,0,1.29,1c.9,0,1.42-.74,1.42-1.82s-.49-1.75-1.4-1.75a1.37,1.37,0,0,0-1.29,1.06,1.28,1.28,0,0,0-.06.35Z"/><path class="cls-4" d="M147.85,343v2c0,.75,0,1.21,0,1.88h0c.29-.57.45-.9.76-1.44l1.47-2.43h1v4.7h-.82v-2c0-.77,0-1.17.06-1.93h0c-.3.61-.5,1-.77,1.46-.45.73-1,1.63-1.47,2.46h-1V343Z"/><path class="cls-4" d="M153.24,343v2c0,.75,0,1.21-.05,1.88h0c.28-.57.44-.9.75-1.44l1.47-2.43h1v4.7h-.81v-2c0-.77,0-1.17.06-1.93h0c-.3.61-.51,1-.78,1.46-.45.73-1,1.63-1.47,2.46h-1V343Zm.55-1.92c0,.42.23.74.62.74s.61-.31.66-.74h.62a1.18,1.18,0,0,1-1.3,1.21,1.14,1.14,0,0,1-1.22-1.21Z"/><path class="cls-6" d="M89.92,367.85l.25-1.9h-.8v-.57h.89l.18-1.41h-.83v-.58h.92l.25-1.85h.57l-.25,1.85h1l.26-1.85h.57l-.24,1.85h.79V364h-.88l-.17,1.41h.83V366h-.92l-.25,1.9h-.59l.26-1.9h-1l-.25,1.9Zm1.93-2.47L92,364H91l-.19,1.41Z"/><path class="cls-6" d="M95.38,363.15V365h2.23v-1.89h.85v4.7h-.85v-2.13H95.38v2.13h-.85v-4.7Z"/><path class="cls-6" d="M102.46,367.85l-.07-.59h0a1.73,1.73,0,0,1-1.43.7,1.34,1.34,0,0,1-1.44-1.35c0-1.14,1-1.76,2.83-1.75v-.1a1,1,0,0,0-1.07-1.09A2.39,2.39,0,0,0,100,364l-.19-.56a2.94,2.94,0,0,1,1.54-.42c1.44,0,1.79,1,1.79,1.93v1.76a6.41,6.41,0,0,0,.08,1.12Zm-.12-2.4c-.94,0-2,.15-2,1.06a.76.76,0,0,0,.81.82,1.18,1.18,0,0,0,1.14-.79.81.81,0,0,0,0-.27Z"/><path class="cls-6" d="M105.39,363.15v2h.2l1.77-2h1l-2.05,2.13c.76.08,1.21.58,1.58,1.43a9.68,9.68,0,0,0,.51,1.14h-.9a6.12,6.12,0,0,1-.43-1,1.53,1.53,0,0,0-1.56-1.11h-.16v2.07h-.85v-4.7Z"/><path class="cls-6" d="M113.39,365.46a2.3,2.3,0,0,1-2.34,2.5,2.23,2.23,0,0,1-2.25-2.42,2.3,2.3,0,0,1,2.33-2.5A2.22,2.22,0,0,1,113.39,365.46Zm-3.73.05c0,1,.59,1.81,1.43,1.81s1.43-.77,1.43-1.83c0-.79-.4-1.81-1.41-1.81S109.66,364.62,109.66,365.51Z"/><path class="cls-6" d="M115.3,363.15V365h2.23v-1.89h.85v4.7h-.85v-2.13H115.3v2.13h-.85v-4.7Z"/><path class="cls-6" d="M120.25,365.66a1.51,1.51,0,0,0,1.61,1.63,3.21,3.21,0,0,0,1.31-.24l.14.61a3.88,3.88,0,0,1-1.56.29,2.19,2.19,0,0,1-2.32-2.37,2.29,2.29,0,0,1,2.21-2.54,2,2,0,0,1,1.94,2.22c0,.17,0,.31,0,.4Zm2.51-.62a1.22,1.22,0,0,0-1.19-1.39,1.42,1.42,0,0,0-1.31,1.39Z"/><path class="cls-6" d="M125.47,363.15v4h2.17v-4h.84v4.06H129l-.05,2.13h-.66l0-1.5h-3.6v-4.7Z"/><path class="cls-6" d="M133.09,363.15v.68h-1.47v4h-.85v-4h-1.46v-.68Z"/><path class="cls-6" d="M138,365.46a2.3,2.3,0,0,1-2.34,2.5,2.23,2.23,0,0,1-2.25-2.42,2.3,2.3,0,0,1,2.33-2.5A2.22,2.22,0,0,1,138,365.46Zm-3.73.05c0,1,.59,1.81,1.43,1.81s1.43-.77,1.43-1.83c0-.79-.4-1.81-1.41-1.81S134.23,364.62,134.23,365.51Z"/><path class="cls-6" d="M142.39,367.68A3.21,3.21,0,0,1,141,368a2.23,2.23,0,0,1-2.34-2.4,2.39,2.39,0,0,1,2.53-2.5,3,3,0,0,1,1.18.24l-.19.67a1.94,1.94,0,0,0-1-.23,1.77,1.77,0,0,0,0,3.54,2.52,2.52,0,0,0,1.05-.23Z"/><path class="cls-6" d="M143.44,363.15h1.05l.86,2.37c.11.35.32.93.42,1.29h0c.11-.35.37-1.1.56-1.61l.76-2.05h1.06l.33,4.7h-.82l-.11-2.24c0-.51-.07-1.11-.08-1.68h0c-.13.43-.26.8-.52,1.52l-.9,2.37h-.62l-.84-2.32c-.15-.45-.35-1.12-.47-1.56h0c0,.55,0,1.17-.07,1.69l-.12,2.22h-.79Z"/><path class="cls-6" d="M153.86,365.46a2.3,2.3,0,0,1-2.34,2.5,2.23,2.23,0,0,1-2.26-2.42,2.3,2.3,0,0,1,2.33-2.5A2.23,2.23,0,0,1,153.86,365.46Zm-3.73.05c0,1,.59,1.81,1.42,1.81s1.43-.77,1.43-1.83c0-.79-.4-1.81-1.41-1.81S150.13,364.62,150.13,365.51Z"/><path class="cls-6" d="M154.92,363.21a9.69,9.69,0,0,1,1.49-.11c.79,0,2.09.13,2.09,1.18a1.11,1.11,0,0,1-1,1.06v0c.69.09,1.2.48,1.2,1.16,0,1.24-1.56,1.39-2.48,1.39-.53,0-1.07,0-1.32-.06Zm.8,4.08a5.12,5.12,0,0,0,.69,0c.58,0,1.43-.14,1.43-.82s-.68-.82-1.5-.82h-.62Zm0-2.17h.64c.64,0,1.29-.18,1.29-.74s-.41-.69-1.27-.69a6,6,0,0,0-.66,0Z"/><path class="cls-6" d="M160.23,363.15l1.56,2.05H162v-2.05h.82v2.05h.16l1.56-2.05h1l-1.86,2.14a1.64,1.64,0,0,1,1.41,1.24,11,11,0,0,0,.52,1.32h-.86a8.17,8.17,0,0,1-.43-1.07,1.3,1.3,0,0,0-1.34-1h-.14v2.08H162v-2.08h-.16a1.3,1.3,0,0,0-1.35,1,8.52,8.52,0,0,1-.44,1.06h-.83a13.24,13.24,0,0,0,.52-1.31,1.66,1.66,0,0,1,1.41-1.25l-1.86-2.14Z"/><path class="cls-6" d="M167.1,363.15v2c0,.75,0,1.22,0,1.89h0c.28-.57.45-.91.76-1.45l1.47-2.43h1v4.7h-.82v-2c0-.77,0-1.16.06-1.92h0c-.3.6-.51,1-.78,1.45-.45.73-1,1.64-1.47,2.46h-1v-4.7Z"/><path class="cls-6" d="M18.23,367.85l.26-1.9h-.8v-.57h.88l.19-1.41h-.84v-.58h.93l.25-1.85h.56l-.24,1.85h1l.25-1.85h.58L21,363.39h.8V364h-.88l-.18,1.41h.84V366h-.93l-.25,1.9h-.58l.25-1.9h-1l-.25,1.9Zm1.94-2.47.18-1.41h-1l-.18,1.41Z"/><path class="cls-6" d="M26.22,367.68a3.25,3.25,0,0,1-1.35.27,2.23,2.23,0,0,1-2.34-2.4,2.39,2.39,0,0,1,2.53-2.5,3,3,0,0,1,1.18.24l-.19.67a2,2,0,0,0-1-.23,1.64,1.64,0,0,0-1.67,1.78A1.61,1.61,0,0,0,25,367.27a2.6,2.6,0,0,0,1-.23Z"/><path class="cls-6" d="M27.27,363.15h1.05l.85,2.37c.12.35.33.93.43,1.29h0c.11-.35.37-1.1.56-1.61l.75-2.05H32l.33,4.7h-.81l-.11-2.24c0-.51-.07-1.11-.09-1.68h0c-.12.43-.25.8-.51,1.52l-.9,2.37h-.63l-.83-2.32c-.15-.45-.35-1.12-.47-1.56h0c0,.55,0,1.17-.08,1.69l-.11,2.22h-.79Z"/><path class="cls-6" d="M37.69,365.46a2.3,2.3,0,0,1-2.35,2.5,2.23,2.23,0,0,1-2.25-2.42,2.3,2.3,0,0,1,2.33-2.5A2.23,2.23,0,0,1,37.69,365.46Zm-3.74.05c0,1,.6,1.81,1.43,1.81s1.43-.77,1.43-1.83c0-.79-.4-1.81-1.41-1.81S34,364.62,34,365.51Z"/><path class="cls-6" d="M38.74,363.21a9.83,9.83,0,0,1,1.5-.11c.79,0,2.09.13,2.09,1.18a1.12,1.12,0,0,1-1,1.06v0c.69.09,1.19.48,1.19,1.16,0,1.24-1.55,1.39-2.47,1.39-.53,0-1.07,0-1.33-.06Zm.81,4.08a5,5,0,0,0,.69,0c.57,0,1.43-.14,1.43-.82s-.68-.82-1.5-.82h-.62Zm0-2.17h.64c.63,0,1.28-.18,1.28-.74s-.4-.69-1.26-.69a5.83,5.83,0,0,0-.66,0Z"/><path class="cls-6" d="M44.06,363.15l1.55,2.05h.18v-2.05h.81v2.05h.17l1.56-2.05h1l-1.86,2.14a1.64,1.64,0,0,1,1.41,1.24,11,11,0,0,0,.52,1.32h-.86a7,7,0,0,1-.43-1.07,1.31,1.31,0,0,0-1.34-1H46.6v2.08h-.81v-2.08h-.16a1.29,1.29,0,0,0-1.35,1,7.18,7.18,0,0,1-.45,1.06H43a13.25,13.25,0,0,0,.51-1.31,1.67,1.67,0,0,1,1.42-1.25l-1.86-2.14Z"/><path class="cls-6" d="M50.93,363.15v2c0,.75,0,1.22,0,1.89h0c.28-.57.45-.91.76-1.45l1.46-2.43h1v4.7h-.81v-2c0-.77,0-1.16.06-1.92h0c-.3.6-.51,1-.78,1.45-.45.73-1,1.64-1.47,2.46h-1v-4.7Z"/><path class="cls-6" d="M56.35,363.15V365h2.23v-1.89h.85v4.7h-.85v-2.13H56.35v2.13H55.5v-4.7Z"/><path class="cls-6" d="M63.43,367.85l-.07-.59h0a1.73,1.73,0,0,1-1.43.7,1.34,1.34,0,0,1-1.44-1.35c0-1.14,1-1.76,2.83-1.75v-.1a1,1,0,0,0-1.07-1.09A2.39,2.39,0,0,0,61,364l-.19-.56a2.94,2.94,0,0,1,1.54-.42c1.44,0,1.79,1,1.79,1.93v1.76a6.41,6.41,0,0,0,.08,1.12Zm-.12-2.4c-.94,0-2,.15-2,1.06a.76.76,0,0,0,.81.82,1.18,1.18,0,0,0,1.14-.79.81.81,0,0,0,.05-.27Z"/><path class="cls-6" d="M66.15,363.15v1.55c0,.59.23,1,1,1a1.79,1.79,0,0,0,1-.33v-2.22H69v4.7h-.85V366h0a2.55,2.55,0,0,1-1.28.36,1.39,1.39,0,0,1-1.54-1.54v-1.64Z"/><path class="cls-6" d="M73,367.85l-.06-.59h0a1.77,1.77,0,0,1-1.44.7A1.34,1.34,0,0,1,70,366.61c0-1.14,1-1.76,2.83-1.75v-.1a1,1,0,0,0-1.07-1.09,2.39,2.39,0,0,0-1.23.35l-.19-.56a2.94,2.94,0,0,1,1.54-.42c1.44,0,1.79,1,1.79,1.93v1.76a6.41,6.41,0,0,0,.08,1.12Zm-.12-2.4c-.94,0-2,.15-2,1.06a.76.76,0,0,0,.81.82,1.18,1.18,0,0,0,1.14-.79.81.81,0,0,0,0-.27Z"/><path class="cls-6" d="M78.65,363.15v4.7H77.8v-4H76.19V365c0,1.33-.13,2.21-.74,2.61a1.4,1.4,0,0,1-.93.29l-.09-.67a1.23,1.23,0,0,0,.47-.19c.43-.32.48-1,.48-2v-1.89Z"/><path class="cls-6" d="M84.3,365.46A2.3,2.3,0,0,1,82,368a2.23,2.23,0,0,1-2.25-2.42A2.3,2.3,0,0,1,82,363,2.22,2.22,0,0,1,84.3,365.46Zm-3.73.05c0,1,.59,1.81,1.43,1.81s1.43-.77,1.43-1.83c0-.79-.4-1.81-1.41-1.81S80.57,364.62,80.57,365.51Z"/><path class="cls-6" d="M207.2,357.85l.25-1.9h-.8v-.57h.89l.18-1.41h-.84v-.58h.93l.25-1.85h.56l-.24,1.85h1l.25-1.85h.58l-.25,1.85h.8V354h-.88l-.18,1.41h.84V356h-.92l-.26,1.9h-.58L209,356h-1l-.25,1.9Zm1.93-2.47.18-1.41h-1l-.18,1.41Z"/><path class="cls-6" d="M215.18,357.68a3.25,3.25,0,0,1-1.35.27,2.23,2.23,0,0,1-2.34-2.4,2.39,2.39,0,0,1,2.53-2.5,3,3,0,0,1,1.18.24L215,354a2,2,0,0,0-1-.23,1.64,1.64,0,0,0-1.67,1.78,1.61,1.61,0,0,0,1.64,1.76,2.6,2.6,0,0,0,1-.23Z"/><path class="cls-6" d="M216.23,353.15h1.05l.86,2.37c.11.35.32.93.42,1.29h0c.11-.35.37-1.1.56-1.61l.76-2.05H221l.33,4.7h-.82l-.11-2.24c0-.51-.07-1.11-.09-1.68h0c-.13.43-.26.8-.52,1.52l-.9,2.37h-.63l-.83-2.32c-.15-.45-.35-1.12-.47-1.56h0c0,.55-.05,1.17-.07,1.69l-.12,2.22h-.79Z"/><path class="cls-6" d="M226.65,355.46a2.3,2.3,0,0,1-2.35,2.5,2.23,2.23,0,0,1-2.25-2.42,2.3,2.3,0,0,1,2.33-2.5A2.23,2.23,0,0,1,226.65,355.46Zm-3.73.05c0,1,.59,1.81,1.42,1.81s1.43-.77,1.43-1.83c0-.79-.4-1.81-1.41-1.81S222.92,354.62,222.92,355.51Z"/><path class="cls-6" d="M227.71,353.21a9.69,9.69,0,0,1,1.49-.11c.79,0,2.09.13,2.09,1.18a1.12,1.12,0,0,1-1,1.06v0c.69.09,1.19.48,1.19,1.16,0,1.24-1.55,1.39-2.47,1.39-.53,0-1.07,0-1.32-.06Zm.8,4.08a5,5,0,0,0,.69,0c.58,0,1.43-.14,1.43-.82s-.68-.82-1.5-.82h-.62Zm0-2.17h.64c.63,0,1.29-.18,1.29-.74s-.41-.69-1.27-.69a6,6,0,0,0-.66,0Z"/><path class="cls-6" d="M233,353.15l1.55,2.05h.18v-2.05h.82v2.05h.16l1.56-2.05h1l-1.86,2.14a1.64,1.64,0,0,1,1.41,1.24,11,11,0,0,0,.52,1.32h-.86a8.17,8.17,0,0,1-.43-1.07,1.31,1.31,0,0,0-1.34-1h-.14v2.08h-.82v-2.08h-.16a1.29,1.29,0,0,0-1.35,1,8.52,8.52,0,0,1-.44,1.06H232a13.25,13.25,0,0,0,.51-1.31,1.67,1.67,0,0,1,1.42-1.25L232,353.15Z"/><path class="cls-6" d="M239.89,353.15v2c0,.75,0,1.22,0,1.89h0c.28-.57.45-.91.76-1.45l1.46-2.43h1v4.7h-.82v-2c0-.77,0-1.16.06-1.92h0c-.3.6-.51,1-.78,1.45-.45.73-1,1.64-1.47,2.46h-1v-4.7Z"/><path class="cls-6" d="M244.21,357.85v-.52l.67-.65c1.62-1.54,2.34-2.35,2.35-3.31a1.12,1.12,0,0,0-1.25-1.23,2.17,2.17,0,0,0-1.34.53l-.27-.6a2.75,2.75,0,0,1,1.79-.64,1.77,1.77,0,0,1,1.93,1.84c0,1.16-.85,2.11-2.18,3.39l-.5.47h2.84v.71Z"/><path class="cls-6" d="M253.4,354.63c0,2.15-.8,3.33-2.2,3.33-1.24,0-2.07-1.16-2.09-3.25s.91-3.28,2.2-3.28S253.4,352.62,253.4,354.63Zm-3.44.09c0,1.65.51,2.58,1.29,2.58s1.29-1,1.29-2.63-.4-2.58-1.28-2.58S250,353,250,354.72Z"/><path class="cls-6" d="M256,352.33h0l-1.1.6-.17-.65,1.38-.74h.73v6.31H256Z"/><path class="cls-6" d="M259.09,356.25a1.79,1.79,0,0,1,1.25-1.69v0a1.57,1.57,0,0,1-1-1.42,1.76,1.76,0,0,1,1.95-1.68,1.63,1.63,0,0,1,1.84,1.55,1.6,1.6,0,0,1-1,1.48v0a1.75,1.75,0,0,1,1.27,1.63,1.94,1.94,0,0,1-2.14,1.84C259.88,358,259.09,357.17,259.09,356.25Zm3.4,0c0-.77-.54-1.14-1.39-1.38a1.37,1.37,0,0,0-1.14,1.3,1.17,1.17,0,0,0,1.26,1.21A1.15,1.15,0,0,0,262.49,356.21Zm-2.35-3.16c0,.63.47,1,1.2,1.17a1.25,1.25,0,0,0,1-1.15,1,1,0,0,0-1.07-1A1,1,0,0,0,260.14,353.05Z"/><path class="cls-6" d="M150.9,357.85l.25-1.9h-.8v-.57h.89l.18-1.41h-.84v-.58h.93l.25-1.85h.56l-.24,1.85h1l.25-1.85h.58l-.25,1.85h.8V354h-.88l-.18,1.41h.84V356h-.92l-.26,1.9h-.58l.25-1.9h-1l-.25,1.9Zm1.93-2.47L153,354h-1l-.18,1.41Z"/><path class="cls-6" d="M156.56,351.8v1.35h1.23v.65h-1.23v2.54c0,.58.17.91.64.91a1.93,1.93,0,0,0,.5-.06l0,.64a2.07,2.07,0,0,1-.76.12,1.22,1.22,0,0,1-.93-.36,1.75,1.75,0,0,1-.33-1.22V353.8H155v-.65h.72V352Z"/><path class="cls-6" d="M158.75,351h.85v2.94h0a1.53,1.53,0,0,1,.61-.6,1.77,1.77,0,0,1,.88-.25c.63,0,1.64.39,1.64,2v2.8h-.86v-2.7c0-.76-.28-1.4-1.08-1.4a1.22,1.22,0,0,0-1.15.86,1,1,0,0,0-.06.41v2.83h-.85Z"/><path class="cls-6" d="M164.61,355.66a1.51,1.51,0,0,0,1.62,1.63,3.19,3.19,0,0,0,1.3-.24l.15.61a4,4,0,0,1-1.57.29,2.18,2.18,0,0,1-2.31-2.37A2.28,2.28,0,0,1,166,353a2,2,0,0,1,1.95,2.22,3.29,3.29,0,0,1,0,.4Zm2.51-.62a1.22,1.22,0,0,0-1.18-1.39,1.42,1.42,0,0,0-1.32,1.39Z"/><path class="cls-6" d="M168.89,357a2.29,2.29,0,0,0,1.13.34c.62,0,.91-.31.91-.7s-.24-.63-.87-.87c-.85-.3-1.25-.76-1.25-1.33a1.45,1.45,0,0,1,1.62-1.38,2.4,2.4,0,0,1,1.16.29l-.21.63a1.82,1.82,0,0,0-1-.28c-.51,0-.79.3-.79.65s.28.56.89.79c.82.31,1.24.72,1.24,1.42S171.11,358,170,358a2.78,2.78,0,0,1-1.33-.32Z"/><path class="cls-6" d="M172.85,354.42c0-.48,0-.88,0-1.27h.75l0,.76h0a1.62,1.62,0,0,1,1.48-.87,1.39,1.39,0,0,1,1.33.95h0a1.91,1.91,0,0,1,.52-.62,1.64,1.64,0,0,1,1-.33c.63,0,1.55.41,1.55,2v2.77h-.84v-2.66c0-.9-.33-1.45-1-1.45a1.12,1.12,0,0,0-1,.78,1.38,1.38,0,0,0-.07.43v2.9h-.83V355c0-.75-.33-1.3-1-1.3a1.16,1.16,0,0,0-1.06.86,1.12,1.12,0,0,0-.07.42v2.83h-.84Z"/><path class="cls-6" d="M185.21,355.46a2.3,2.3,0,0,1-2.34,2.5,2.23,2.23,0,0,1-2.25-2.42A2.3,2.3,0,0,1,183,353,2.22,2.22,0,0,1,185.21,355.46Zm-3.73.05c0,1,.59,1.81,1.43,1.81s1.43-.77,1.43-1.83c0-.79-.4-1.81-1.41-1.81S181.48,354.62,181.48,355.51Z"/><path class="cls-6" d="M186.55,353.15l.93,2.64a11.68,11.68,0,0,1,.37,1.21h0c.11-.39.25-.78.4-1.21l.92-2.64h.89l-1.85,4.7h-.81l-1.79-4.7Z"/><path class="cls-6" d="M190.36,357.36l2.13-2.77c.2-.25.4-.48.61-.73v0h-2.55v-.69h3.59v.53l-2.1,2.74c-.19.26-.39.49-.6.73v0h2.75v.68h-3.82Z"/><path class="cls-6" d="M195.05,351h.86v2.94h0a1.47,1.47,0,0,1,.61-.6,1.71,1.71,0,0,1,.88-.25c.63,0,1.64.39,1.64,2v2.8h-.86v-2.7c0-.76-.28-1.4-1.09-1.4a1.22,1.22,0,0,0-1.14.86,1,1,0,0,0-.06.41v2.83h-.86Z"/><path class="cls-6" d="M201.4,351.83a.53.53,0,0,1-1.06,0,.52.52,0,0,1,.53-.54A.52.52,0,0,1,201.4,351.83Zm-1,6v-4.7h.85v4.7Z"/><path class="cls-6" d="M61.65,357.85l.25-1.9h-.79v-.57H62l.19-1.41h-.84v-.58h.92l.26-1.85h.56l-.24,1.85h1l.25-1.85h.57l-.24,1.85h.8V354h-.89l-.17,1.41H65V356h-.92l-.25,1.9h-.59l.26-1.9h-1l-.26,1.9Zm1.93-2.47.19-1.41h-1l-.19,1.41Z"/><path class="cls-6" d="M70.15,353.15v4.7H69.3v-4H67.11v4h-.84v-4.7Z"/><path class="cls-6" d="M71.54,354.69c0-.61,0-1.09,0-1.54h.77l0,.81h0A1.84,1.84,0,0,1,74,353a2.13,2.13,0,0,1,2,2.39c0,1.7-1,2.53-2.14,2.53a1.63,1.63,0,0,1-1.44-.74h0v2.56h-.85Zm.85,1.25a1.87,1.87,0,0,0,0,.35,1.32,1.32,0,0,0,1.28,1c.9,0,1.43-.74,1.43-1.82s-.5-1.75-1.4-1.75a1.37,1.37,0,0,0-1.3,1.06,2.11,2.11,0,0,0,0,.35Z"/><path class="cls-6" d="M81.33,355.46A2.3,2.3,0,0,1,79,358a2.23,2.23,0,0,1-2.25-2.42,2.3,2.3,0,0,1,2.33-2.5A2.23,2.23,0,0,1,81.33,355.46Zm-3.74.05c0,1,.6,1.81,1.43,1.81s1.43-.77,1.43-1.83c0-.79-.4-1.81-1.41-1.81S77.59,354.62,77.59,355.51Z"/><path class="cls-6" d="M83.22,353.15v4h1.64v-4h.84v4h1.64v-4h.85v4.06h.47l0,2.13H88l0-1.5H82.38v-4.7Z"/><path class="cls-6" d="M92.28,357.85l-.06-.59h0a1.75,1.75,0,0,1-1.44.7,1.34,1.34,0,0,1-1.44-1.35c0-1.14,1-1.76,2.83-1.75v-.1a1,1,0,0,0-1.07-1.09,2.35,2.35,0,0,0-1.22.35l-.2-.56A3,3,0,0,1,91.2,353C92.63,353,93,354,93,355v1.76a6.41,6.41,0,0,0,.08,1.12Zm-.12-2.4c-.93,0-2,.15-2,1.06a.75.75,0,0,0,.8.82,1.18,1.18,0,0,0,1.14-.79.81.81,0,0,0,0-.27Z"/><path class="cls-6" d="M95.15,353.15v2c0,.75,0,1.22-.05,1.89h0c.28-.57.45-.91.76-1.45l1.47-2.43h1v4.7h-.82v-2c0-.77,0-1.16.06-1.92h0c-.3.6-.5,1-.78,1.45-.44.73-1,1.64-1.46,2.46h-1v-4.7Zm.55-1.92c0,.42.24.74.63.74s.61-.31.66-.74h.61a1.18,1.18,0,0,1-1.29,1.21,1.13,1.13,0,0,1-1.23-1.21Z"/><path class="cls-6" d="M102.54,351v2.11a2.44,2.44,0,0,1,0,4.88v1.84h-.77V358a2.33,2.33,0,0,1-2.37-2.41,2.37,2.37,0,0,1,2.37-2.48V351Zm-.77,2.69a1.9,1.9,0,0,0,0,3.72Zm.77,3.72a1.9,1.9,0,0,0,0-3.72Z"/><path class="cls-6" d="M108.58,357.85l-.07-.59h0a1.75,1.75,0,0,1-1.44.7,1.34,1.34,0,0,1-1.44-1.35c0-1.14,1-1.76,2.83-1.75v-.1a1,1,0,0,0-1.07-1.09,2.38,2.38,0,0,0-1.22.35l-.2-.56a3,3,0,0,1,1.55-.42c1.44,0,1.79,1,1.79,1.93v1.76a6.41,6.41,0,0,0,.08,1.12Zm-.13-2.4c-.93,0-2,.15-2,1.06a.76.76,0,0,0,.81.82,1.16,1.16,0,0,0,1.13-.79.81.81,0,0,0,0-.27Z"/><path class="cls-6" d="M111.48,353.15V355h2.24v-1.89h.84v4.7h-.84v-2.13h-2.24v2.13h-.84v-4.7Z"/><path class="cls-6" d="M119.61,353.15v4.06h.48l0,2.13h-.67l0-1.5h-3.25l0,1.5h-.67l0-2.13h.4a3.53,3.53,0,0,0,.46-1,6,6,0,0,0,.28-1.87v-1.23Zm-2.39,1.43a6.12,6.12,0,0,1-.24,1.75,4.31,4.31,0,0,1-.38.87h2.17v-3.4h-1.55Z"/><path class="cls-6" d="M121.9,353.15v2c0,.75,0,1.22-.05,1.89h0c.28-.57.45-.91.76-1.45l1.46-2.43h1v4.7h-.81v-2c0-.77,0-1.16.06-1.92h0c-.3.6-.51,1-.78,1.45-.45.73-1,1.64-1.47,2.46h-1v-4.7Z"/><path class="cls-6" d="M127.34,353.15v2h.2l1.77-2h1l-2,2.13c.76.08,1.22.58,1.59,1.43a9.49,9.49,0,0,0,.5,1.14h-.89a5.23,5.23,0,0,1-.44-1,1.53,1.53,0,0,0-1.56-1.11h-.16v2.07h-.85v-4.7Z"/><path class="cls-6" d="M135.35,355.46A2.3,2.3,0,0,1,133,358a2.23,2.23,0,0,1-2.25-2.42,2.3,2.3,0,0,1,2.33-2.5A2.23,2.23,0,0,1,135.35,355.46Zm-3.74.05c0,1,.6,1.81,1.43,1.81s1.43-.77,1.43-1.83c0-.79-.4-1.81-1.41-1.81S131.61,354.62,131.61,355.51Z"/><path class="cls-6" d="M136.4,353.21a9.83,9.83,0,0,1,1.5-.11c.79,0,2.09.13,2.09,1.18a1.12,1.12,0,0,1-1,1.06v0c.69.09,1.19.48,1.19,1.16,0,1.24-1.55,1.39-2.48,1.39-.52,0-1.07,0-1.32-.06Zm.81,4.08a5,5,0,0,0,.69,0c.57,0,1.43-.14,1.43-.82s-.68-.82-1.5-.82h-.62Zm0-2.17h.64c.63,0,1.28-.18,1.28-.74s-.41-.69-1.26-.69a5.83,5.83,0,0,0-.66,0Z"/><path class="cls-6" d="M143.88,357.85l-.06-.59h0a1.75,1.75,0,0,1-1.44.7,1.34,1.34,0,0,1-1.44-1.35c0-1.14,1-1.76,2.83-1.75v-.1a1,1,0,0,0-1.07-1.09,2.35,2.35,0,0,0-1.22.35l-.2-.56a3,3,0,0,1,1.55-.42c1.43,0,1.78,1,1.78,1.93v1.76a6.41,6.41,0,0,0,.08,1.12Zm-.12-2.4c-.93,0-2,.15-2,1.06a.76.76,0,0,0,.8.82,1.18,1.18,0,0,0,1.14-.79.81.81,0,0,0,0-.27Z"/><path class="cls-6" d="M18.23,357.85l.25-1.9h-.79v-.57h.88l.18-1.41h-.83v-.58h.92l.25-1.85h.57l-.24,1.85h1l.25-1.85h.57L21,353.39h.8V354h-.89l-.17,1.41h.83V356h-.92l-.25,1.9h-.59l.26-1.9h-1l-.26,1.9Zm1.93-2.47.19-1.41h-1l-.19,1.41Z"/><path class="cls-6" d="M26.22,357.68a3.29,3.29,0,0,1-1.35.27,2.24,2.24,0,0,1-2.35-2.4,2.4,2.4,0,0,1,2.53-2.5,3,3,0,0,1,1.19.24L26,354a1.91,1.91,0,0,0-1-.23,1.77,1.77,0,0,0,0,3.54,2.52,2.52,0,0,0,1.05-.23Z"/><path class="cls-6" d="M27.27,353.15h1l.86,2.37c.12.35.32.93.43,1.29h0c.1-.35.37-1.1.55-1.61l.76-2.05H32l.33,4.7H31.5l-.1-2.24c0-.51-.07-1.11-.09-1.68h0c-.13.43-.25.8-.52,1.52l-.9,2.37h-.62l-.84-2.32c-.14-.45-.35-1.12-.46-1.56h0c0,.55,0,1.17-.08,1.69l-.12,2.22h-.78Z"/><path class="cls-6" d="M37.68,355.46a2.3,2.3,0,0,1-2.34,2.5,2.24,2.24,0,0,1-2.26-2.42,2.3,2.3,0,0,1,2.34-2.5A2.22,2.22,0,0,1,37.68,355.46Zm-3.73.05c0,1,.59,1.81,1.43,1.81s1.43-.77,1.43-1.83c0-.79-.4-1.81-1.41-1.81S34,354.62,34,355.51Z"/><path class="cls-6" d="M38.74,353.21a9.73,9.73,0,0,1,1.5-.11c.78,0,2.09.13,2.09,1.18a1.12,1.12,0,0,1-1,1.06v0c.69.09,1.2.48,1.2,1.16,0,1.24-1.56,1.39-2.48,1.39-.52,0-1.07,0-1.32-.06Zm.81,4.08a4.93,4.93,0,0,0,.69,0c.57,0,1.43-.14,1.43-.82s-.69-.82-1.5-.82h-.62Zm0-2.17h.64c.63,0,1.28-.18,1.28-.74s-.41-.69-1.26-.69a5.83,5.83,0,0,0-.66,0Z"/><path class="cls-6" d="M44.05,353.15l1.56,2.05h.17v-2.05h.82v2.05h.17l1.55-2.05h1l-1.85,2.14a1.65,1.65,0,0,1,1.41,1.24,11,11,0,0,0,.51,1.32h-.85a6.09,6.09,0,0,1-.43-1.07,1.31,1.31,0,0,0-1.34-1H46.6v2.08h-.82v-2.08h-.15a1.29,1.29,0,0,0-1.35,1,8.45,8.45,0,0,1-.45,1.06H43a13.24,13.24,0,0,0,.52-1.31,1.66,1.66,0,0,1,1.42-1.25l-1.87-2.14Z"/><path class="cls-6" d="M51,351.3v2.45a6.39,6.39,0,0,1,.78-.05c1.35,0,2.52.6,2.52,2.05a2,2,0,0,1-.5,1.39,3.21,3.21,0,0,1-2.33.77,9.76,9.76,0,0,1-1.32-.08V351.3Zm0,5.9a3.2,3.2,0,0,0,.68.05c.93,0,1.74-.47,1.74-1.47s-.87-1.4-1.75-1.4a4.48,4.48,0,0,0-.67,0Zm4.89-5.9v6.55H55V351.3Z"/><path class="cls-6" d="M161.94,347.72l.25-1.91h-.8v-.57h.89l.18-1.41h-.84v-.57h.93l.25-1.86h.56l-.24,1.86h1l.25-1.86H165l-.25,1.86h.8v.57h-.88l-.18,1.41h.84v.57h-.92l-.26,1.91h-.58l.25-1.91h-1l-.25,1.91Zm1.93-2.48.18-1.41h-1l-.18,1.41Z"/><path class="cls-6" d="M169.92,347.54a3.06,3.06,0,0,1-1.35.28,2.24,2.24,0,0,1-2.34-2.4,2.39,2.39,0,0,1,2.53-2.5,2.79,2.79,0,0,1,1.18.24l-.19.66a2.1,2.1,0,0,0-1-.22,1.64,1.64,0,0,0-1.67,1.78,1.61,1.61,0,0,0,1.64,1.76,2.42,2.42,0,0,0,1.05-.24Z"/><path class="cls-6" d="M170.9,343.07a11.55,11.55,0,0,1,1.5-.1c.79,0,2.09.12,2.09,1.17a1.11,1.11,0,0,1-1,1.06v0c.69.1,1.19.49,1.19,1.17,0,1.23-1.55,1.39-2.48,1.39-.52,0-1.06,0-1.32-.06Zm.81,4.09a5,5,0,0,0,.69,0c.57,0,1.43-.14,1.43-.82s-.68-.83-1.5-.83h-.62Zm0-2.17h.64c.63,0,1.28-.19,1.28-.74s-.4-.69-1.26-.69a5.83,5.83,0,0,0-.66,0Z"/><path class="cls-6" d="M178.38,347.72l-.06-.59h0a1.75,1.75,0,0,1-1.44.7,1.34,1.34,0,0,1-1.44-1.35c0-1.14,1-1.76,2.83-1.75v-.1a1,1,0,0,0-1.07-1.09,2.35,2.35,0,0,0-1.22.35l-.2-.56a2.86,2.86,0,0,1,1.55-.42c1.43,0,1.78,1,1.78,1.92v1.76a6.45,6.45,0,0,0,.08,1.13Zm-.12-2.4c-.93,0-2,.14-2,1.06a.76.76,0,0,0,.8.82,1.18,1.18,0,0,0,1.14-.79.91.91,0,0,0,0-.27Z"/><path class="cls-6" d="M184.11,343v4.06h.48l0,2.13h-.67l0-1.5h-3.26l0,1.5h-.67l0-2.13h.4a3.89,3.89,0,0,0,.47-1,6.43,6.43,0,0,0,.27-1.88V343Zm-2.38,1.42a6,6,0,0,1-.25,1.75,3.9,3.9,0,0,1-.38.88h2.17v-3.4h-1.54Z"/><path class="cls-6" d="M186.44,343v1.59a4.58,4.58,0,0,1,.78-.05c1.06,0,2.17.33,2.17,1.59a1.32,1.32,0,0,1-.49,1.07,3.26,3.26,0,0,1-2,.55,11.39,11.39,0,0,1-1.27-.07V343Zm0,4.11a4.73,4.73,0,0,0,.63,0c.64,0,1.47-.22,1.47-1s-.86-1-1.49-1a3.86,3.86,0,0,0-.61.05Z"/><path class="cls-6" d="M194,341.42a5.27,5.27,0,0,1-1,.21,2.3,2.3,0,0,0-1.67.89,3.29,3.29,0,0,0-.52,1.56h0a1.76,1.76,0,0,1,1.63-1.06c1.16,0,2,.82,2,2.32s-.8,2.49-2.18,2.49c-1.65,0-2.2-1.59-2.2-3.15a4.16,4.16,0,0,1,.73-2.61,2.86,2.86,0,0,1,2-1.11,5.9,5.9,0,0,0,1.17-.25Zm-1.68,2.23a1.13,1.13,0,0,0-1.06.64,2,2,0,0,0-.23,1c0,.78.37,1.9,1.31,1.9s1.29-.92,1.29-1.78S193.29,343.65,192.28,343.65Z"/><path class="cls-6" d="M198.14,347.72l-.07-.59h0a1.75,1.75,0,0,1-1.44.7,1.34,1.34,0,0,1-1.44-1.35c0-1.14,1-1.76,2.83-1.75v-.1a1,1,0,0,0-1.07-1.09,2.38,2.38,0,0,0-1.22.35l-.2-.56a2.88,2.88,0,0,1,1.55-.42c1.44,0,1.79,1,1.79,1.92v1.76a6.45,6.45,0,0,0,.08,1.13Zm-.13-2.4c-.93,0-2,.14-2,1.06a.76.76,0,0,0,.81.82,1.16,1.16,0,0,0,1.13-.79.91.91,0,0,0,0-.27Z"/><path class="cls-6" d="M203.57,347.54a3.1,3.1,0,0,1-1.35.28,2.24,2.24,0,0,1-2.34-2.4,2.39,2.39,0,0,1,2.52-2.5,2.84,2.84,0,0,1,1.19.24l-.2.66a2,2,0,0,0-1-.22,1.77,1.77,0,0,0,0,3.54,2.35,2.35,0,0,0,1-.24Z"/><path class="cls-6" d="M204.62,343h1l.85,2.37c.12.35.32.92.43,1.29h0c.11-.35.37-1.1.55-1.61l.76-2.05h1.06l.33,4.7h-.82l-.1-2.25c0-.5-.07-1.1-.09-1.68h0c-.13.43-.25.81-.51,1.53l-.91,2.37h-.62l-.84-2.32c-.14-.45-.35-1.13-.46-1.57h0c0,.56-.05,1.18-.08,1.69l-.12,2.23h-.78Z"/><path class="cls-6" d="M215,345.33a2.3,2.3,0,0,1-2.34,2.5,2.24,2.24,0,0,1-2.25-2.42,2.3,2.3,0,0,1,2.33-2.5A2.22,2.22,0,0,1,215,345.33Zm-3.73.05c0,1,.59,1.81,1.43,1.81s1.43-.77,1.43-1.83c0-.8-.4-1.81-1.41-1.81S211.3,344.48,211.3,345.38Z"/><path class="cls-6" d="M216.09,343.07a11.42,11.42,0,0,1,1.5-.1c.79,0,2.09.12,2.09,1.17a1.11,1.11,0,0,1-1,1.06v0c.69.1,1.19.49,1.19,1.17,0,1.23-1.55,1.39-2.48,1.39-.52,0-1.07,0-1.32-.06Zm.81,4.09a5,5,0,0,0,.69,0c.57,0,1.43-.14,1.43-.82s-.68-.83-1.5-.83h-.62Zm0-2.17h.64c.63,0,1.28-.19,1.28-.74s-.41-.69-1.26-.69a5.83,5.83,0,0,0-.66,0Z"/><path class="cls-6" d="M221.41,343l1.55,2.05h.18V343H224v2.05h.17l1.55-2.05h1l-1.85,2.13a1.65,1.65,0,0,1,1.41,1.25,11.75,11.75,0,0,0,.51,1.32h-.85a6.73,6.73,0,0,1-.43-1.08,1.3,1.3,0,0,0-1.34-1H224v2.08h-.81v-2.08H223a1.28,1.28,0,0,0-1.35,1,8,8,0,0,1-.45,1.07h-.82c.19-.38.35-.88.51-1.31a1.67,1.67,0,0,1,1.42-1.26L220.42,343Z"/><path class="cls-6" d="M227.91,345.52a1.5,1.5,0,0,0,1.61,1.64,3,3,0,0,0,1.3-.25l.15.62a3.94,3.94,0,0,1-1.57.29,2.18,2.18,0,0,1-2.31-2.37,2.28,2.28,0,0,1,2.21-2.54,2,2,0,0,1,1.94,2.22,2.94,2.94,0,0,1,0,.39Zm2.5-.61a1.22,1.22,0,0,0-1.18-1.39,1.41,1.41,0,0,0-1.31,1.39Z"/><path class="cls-6" d="M233.08,343v2c0,.75,0,1.21,0,1.88h0c.29-.57.45-.9.76-1.44l1.47-2.43h1v4.7h-.82v-2c0-.77,0-1.17.06-1.93h0c-.3.61-.5,1-.77,1.46-.45.73-1,1.63-1.47,2.46h-1V343Zm.56-1.92c0,.42.23.74.62.74s.61-.31.66-.74h.61a1.18,1.18,0,0,1-1.29,1.21A1.13,1.13,0,0,1,233,341.1Z"/><path class="cls-7" d="M40,25.1a12.3,12.3,0,1,1-12.3-12.31A12.28,12.28,0,0,1,40,25.1Z"/><path class="cls-8" d="M37.37,32.72a12.29,12.29,0,0,1-19.32,0,9.8,9.8,0,0,1,4.84-7.07,6.12,6.12,0,0,0,9.64,0A9.78,9.78,0,0,1,37.37,32.72Z"/><path class="cls-8" d="M27.71,26.91a5.05,5.05,0,1,0-3.83-1.75A5.06,5.06,0,0,0,27.71,26.91Z"/><path class="cls-4" d="M49.65,28.61H47.91V28h4.24v.63H50.4v5.11h-.75Z"/><path class="cls-4" d="M55.71,31.62a2,2,0,0,1-2.05,2.19,2,2,0,0,1-2-2.12,2,2,0,0,1,2-2.19A2,2,0,0,1,55.71,31.62Zm-3.27,0c0,.91.52,1.59,1.26,1.59S55,32.57,55,31.65c0-.7-.35-1.59-1.24-1.59S52.44,30.88,52.44,31.66Z"/><path class="cls-4" d="M56.7,29.59h.92l.75,2.08c.1.31.28.81.37,1.13h0c.09-.3.32-1,.49-1.41l.66-1.8h.93l.29,4.13h-.72l-.09-2c0-.44-.06-1-.08-1.47h0c-.11.37-.22.7-.45,1.33L59,33.69h-.54l-.73-2c-.13-.39-.31-1-.41-1.37h0c0,.49,0,1-.06,1.49l-.11,1.95h-.69Z"/><path class="cls-4" d="M65,33.56a2.81,2.81,0,0,1-1.19.24,2,2,0,0,1-2.05-2.1A2.09,2.09,0,0,1,64,29.51a2.51,2.51,0,0,1,1,.21l-.17.58a1.78,1.78,0,0,0-.87-.19,1.55,1.55,0,0,0,0,3.09,2.25,2.25,0,0,0,.92-.2Z"/><path class="cls-4" d="M66.65,29.59v1.79h.18l1.55-1.79h.91L67.5,31.46c.66.07,1.06.51,1.38,1.25a9.11,9.11,0,0,0,.45,1h-.79a6.06,6.06,0,0,1-.38-.85,1.34,1.34,0,0,0-1.36-1h-.15v1.82h-.74V29.59Z"/><path class="cls-4" d="M69.5,34.76a11.58,11.58,0,0,0,.51-2l.84-.09A10.39,10.39,0,0,1,70,34.71Z"/><path class="cls-4" d="M74.51,31.91l-.6,1.81h-.76L75.1,28H76l2,5.74h-.79l-.62-1.81Zm1.88-.58-.56-1.65c-.13-.38-.21-.72-.3-1.05h0c-.08.34-.17.69-.28,1l-.57,1.66Z"/><path class="cls-4" d="M79.51,29.59v1.79h.18l1.55-1.79h.91l-1.8,1.87c.66.07,1.06.51,1.39,1.25a8.88,8.88,0,0,0,.44,1H81.4a5.92,5.92,0,0,1-.39-.85,1.34,1.34,0,0,0-1.36-1h-.14v1.82h-.74V29.59Z"/><path class="cls-4" d="M85.21,33.72l-.06-.52h0a1.55,1.55,0,0,1-1.26.61,1.17,1.17,0,0,1-1.26-1.18c0-1,.88-1.55,2.47-1.54V31a.85.85,0,0,0-.93-1,2,2,0,0,0-1.08.31l-.17-.49a2.59,2.59,0,0,1,1.36-.37c1.26,0,1.56.86,1.56,1.69v1.54a6,6,0,0,0,.07,1Zm-.11-2.11c-.82,0-1.75.13-1.75.93a.67.67,0,0,0,.71.72,1,1,0,0,0,1-.69,1.09,1.09,0,0,0,0-.24Z"/><path class="cls-4" d="M90.23,29.59v3.56h.42l0,1.87H90l0-1.31H87.13l0,1.31h-.59l0-1.87h.35a3.27,3.27,0,0,0,.41-.84,5.47,5.47,0,0,0,.24-1.64V29.59Zm-2.09,1.26a5.71,5.71,0,0,1-.21,1.53,4.17,4.17,0,0,1-.34.77h1.9v-3H88.14Z"/><path class="cls-4" d="M91.93,31.79a1.32,1.32,0,0,0,1.41,1.43A2.68,2.68,0,0,0,94.48,33l.13.53a3.31,3.31,0,0,1-1.37.26,1.91,1.91,0,0,1-2-2.08,2,2,0,0,1,1.94-2.22,1.74,1.74,0,0,1,1.7,1.94,2.38,2.38,0,0,1,0,.35Zm2.19-.54a1.06,1.06,0,0,0-1-1.21,1.24,1.24,0,0,0-1.15,1.21Z"/><path class="cls-4" d="M95.82,29.59h.92l.75,2.08c.1.31.28.81.37,1.13h0c.09-.3.32-1,.48-1.41l.67-1.8H100l.29,4.13h-.72l-.09-2c0-.44-.06-1-.08-1.47h0c-.11.37-.22.7-.45,1.33l-.79,2.08h-.54l-.74-2c-.12-.39-.3-1-.4-1.37h0c0,.49,0,1-.07,1.49l-.1,1.95h-.69Z"/><path class="cls-4" d="M101.9,29.59v1.74c0,.66,0,1.07,0,1.65h0c.24-.5.39-.79.66-1.27l1.29-2.13h.87v4.13H104V32c0-.67,0-1,0-1.69h0c-.26.53-.44.86-.68,1.28-.39.64-.84,1.43-1.28,2.16h-.86V29.59Z"/><path class="cls-4" d="M109,33.72h-.74V32h-.55a.94.94,0,0,0-.69.23,2.7,2.7,0,0,0-.58,1.16,3.59,3.59,0,0,1-.17.34h-.8a2.6,2.6,0,0,0,.25-.47,3.19,3.19,0,0,1,.65-1.25,1,1,0,0,1,.47-.23v0a1.09,1.09,0,0,1-1.09-1,1,1,0,0,1,.54-.9,3,3,0,0,1,1.38-.28,11.94,11.94,0,0,1,1.33.09Zm-.74-3.63a3.72,3.72,0,0,0-.62,0c-.51,0-1.12.14-1.12.71s.66.72,1.1.72h.64Z"/><g id="username"><path class="cls-4" d="M53.61,22.27c0,.57,0,1,0,1.42h-1L52.54,23h0A1.71,1.71,0,0,1,51,23.8c-.86,0-1.65-.52-1.65-2.06V19h1.2v2.57c0,.79.25,1.3.88,1.3a1,1,0,0,0,.92-.64,1.1,1.1,0,0,0,.06-.37V19h1.2Z"/><path class="cls-4" d="M54.84,22.59a2.61,2.61,0,0,0,1.22.34c.52,0,.75-.21.75-.52s-.19-.49-.77-.69c-.93-.32-1.31-.83-1.31-1.38a1.59,1.59,0,0,1,1.79-1.49,2.87,2.87,0,0,1,1.26.28l-.24.85a2.06,2.06,0,0,0-1-.27c-.42,0-.66.2-.66.49s.23.45.83.66c.85.31,1.25.75,1.26,1.45,0,.86-.67,1.48-1.92,1.48a3.09,3.09,0,0,1-1.44-.33Z"/><path class="cls-4" d="M59.8,21.66a1.29,1.29,0,0,0,1.46,1.23,3.47,3.47,0,0,0,1.31-.22l.17.83a4.57,4.57,0,0,1-1.65.29,2.24,2.24,0,0,1-2.44-2.39A2.35,2.35,0,0,1,61,18.85a2.06,2.06,0,0,1,2,2.3,3.13,3.13,0,0,1,0,.51Zm2.08-.84a1,1,0,0,0-1-1.15,1.17,1.17,0,0,0-1.1,1.15Z"/><path class="cls-4" d="M64,20.48c0-.64,0-1.09,0-1.52h1l0,.9h0a1.42,1.42,0,0,1,1.3-1,1.27,1.27,0,0,1,.28,0V20a1.69,1.69,0,0,0-.35,0,1.05,1.05,0,0,0-1.07.9,2.1,2.1,0,0,0,0,.37v2.45H64Z"/><path class="cls-4" d="M67.42,20.37c0-.55,0-1,0-1.41h1.05l.06.71h0A1.72,1.72,0,0,1,70,18.85c.82,0,1.68.54,1.68,2v2.81h-1.2V21c0-.68-.25-1.2-.9-1.2a1,1,0,0,0-.93.7,1.23,1.23,0,0,0-.05.39v2.78H67.42Z"/><path class="cls-4" d="M75.64,23.69l-.07-.52h0a1.76,1.76,0,0,1-1.4.63,1.41,1.41,0,0,1-1.49-1.41c0-1.2,1.06-1.8,2.81-1.79v-.08c0-.31-.13-.82-1-.82a2.46,2.46,0,0,0-1.28.35L73,19.27a3.44,3.44,0,0,1,1.71-.42,1.76,1.76,0,0,1,2,2v1.71a7.39,7.39,0,0,0,.07,1.14Zm-.15-2.31c-.85,0-1.65.16-1.65.88a.62.62,0,0,0,.68.68,1,1,0,0,0,.93-.65.82.82,0,0,0,0-.26Z"/><path class="cls-4" d="M77.92,20.37c0-.55,0-1,0-1.41h1l0,.7h0a1.63,1.63,0,0,1,1.45-.81,1.37,1.37,0,0,1,1.32.88h0a1.67,1.67,0,0,1,.58-.6,1.6,1.6,0,0,1,1-.28c.79,0,1.59.54,1.59,2v2.79H83.73V21.08c0-.79-.27-1.26-.85-1.26a.91.91,0,0,0-.83.64,1.59,1.59,0,0,0-.06.39v2.84H80.82V21c0-.66-.26-1.13-.81-1.13a.94.94,0,0,0-.86.68,1,1,0,0,0-.07.39v2.8H77.92Z"/><path class="cls-4" d="M87,21.66a1.29,1.29,0,0,0,1.46,1.23,3.47,3.47,0,0,0,1.31-.22l.18.83a4.63,4.63,0,0,1-1.66.29,2.24,2.24,0,0,1-2.44-2.39,2.35,2.35,0,0,1,2.32-2.55,2.06,2.06,0,0,1,2,2.3,2.89,2.89,0,0,1,0,.51Zm2.08-.84a1,1,0,0,0-1-1.15A1.17,1.17,0,0,0,87,20.82Z"/></g><path class="cls-4" d="M259.45,25.09a1.16,1.16,0,0,1-1.25,1.23,1.18,1.18,0,0,1-1.28-1.23,1.17,1.17,0,0,1,1.28-1.2A1.14,1.14,0,0,1,259.45,25.09Z"/><path class="cls-4" d="M264,25.09a1.27,1.27,0,1,1-1.26-1.2A1.15,1.15,0,0,1,264,25.09Z"/><path class="cls-4" d="M268.59,25.09a1.27,1.27,0,1,1-1.26-1.2A1.15,1.15,0,0,1,268.59,25.09Z"/><path class="cls-9" d="M125.48,312.3A2.47,2.47,0,1,1,123,310,2.24,2.24,0,0,1,125.48,312.3Z"/><path class="cls-9" d="M134.42,312.3a2.27,2.27,0,0,1-2.46,2.4,2.3,2.3,0,0,1-2.49-2.4A2.27,2.27,0,0,1,132,310,2.24,2.24,0,0,1,134.42,312.3Z"/><path class="cls-6" d="M143.35,312.3a2.27,2.27,0,0,1-2.45,2.4,2.3,2.3,0,0,1-2.49-2.4A2.27,2.27,0,0,1,140.9,310,2.24,2.24,0,0,1,143.35,312.3Z"/><path class="cls-9" d="M152.29,312.3a2.47,2.47,0,1,1-2.46-2.35A2.24,2.24,0,0,1,152.29,312.3Z"/><path class="cls-9" d="M161.23,312.3a2.27,2.27,0,0,1-2.46,2.4,2.3,2.3,0,0,1-2.49-2.4,2.27,2.27,0,0,1,2.49-2.35A2.24,2.24,0,0,1,161.23,312.3Z"/><path class="cls-5" d="M20.76,374.57v6.08H20v-5.42H17.16v5.42h-.79v-6.08Z"/><path class="cls-5" d="M26.06,378.43a2.14,2.14,0,0,1-2.18,2.32,2.08,2.08,0,0,1-2.09-2.25A2.14,2.14,0,0,1,24,376.18,2.08,2.08,0,0,1,26.06,378.43Zm-3.47.05c0,.95.55,1.67,1.33,1.67s1.32-.71,1.32-1.69c0-.74-.37-1.68-1.3-1.68S22.59,377.65,22.59,378.48Z"/><path class="cls-5" d="M30.17,380.49a3.1,3.1,0,0,1-1.26.25,2.07,2.07,0,0,1-2.17-2.23,2.22,2.22,0,0,1,2.34-2.32,2.59,2.59,0,0,1,1.1.23L30,377a1.81,1.81,0,0,0-.92-.2,1.64,1.64,0,0,0,0,3.28,2.24,2.24,0,0,0,1-.22Z"/><path class="cls-5" d="M31.14,376.28h1l.79,2.2c.11.33.3.86.4,1.2h0c.1-.32.34-1,.51-1.49l.71-1.91h1l.31,4.37h-.76l-.1-2.08c0-.47-.06-1-.08-1.57h0c-.12.4-.23.75-.48,1.42l-.84,2.2H33l-.78-2.15c-.13-.42-.32-1.05-.43-1.46h0c0,.52,0,1.1-.07,1.57l-.11,2.07h-.73Z"/><path class="cls-5" d="M40.8,378.43a2.14,2.14,0,0,1-2.17,2.32,2.08,2.08,0,0,1-2.09-2.25,2.13,2.13,0,0,1,2.16-2.32A2.07,2.07,0,0,1,40.8,378.43Zm-3.46.05c0,.95.55,1.67,1.32,1.67s1.33-.71,1.33-1.69c0-.74-.37-1.68-1.31-1.68S37.34,377.65,37.34,378.48Z"/><path class="cls-5" d="M44.68,376.28v.64H43.32v3.73h-.79v-3.73H41.17v-.64Z"/><path class="cls-5" d="M45.37,377.71c0-.56,0-1,0-1.43h.72l0,.75h0a1.73,1.73,0,0,1,1.55-.85,2,2,0,0,1,1.85,2.22,2.07,2.07,0,0,1-2,2.35,1.52,1.52,0,0,1-1.35-.69h0v2.37h-.78Zm.78,1.16a1.66,1.66,0,0,0,0,.33,1.22,1.22,0,0,0,1.19.93c.84,0,1.33-.69,1.33-1.69s-.46-1.62-1.3-1.62a1.26,1.26,0,0,0-1.2,1,1.2,1.2,0,0,0-.06.32Z"/><path class="cls-5" d="M50.94,378.61a1.4,1.4,0,0,0,1.5,1.52,2.81,2.81,0,0,0,1.21-.23l.13.57a3.65,3.65,0,0,1-1.45.27,2,2,0,0,1-2.15-2.2,2.13,2.13,0,0,1,2-2.36,1.85,1.85,0,0,1,1.8,2.06,3.12,3.12,0,0,1,0,.37Zm2.33-.57a1.13,1.13,0,0,0-1.1-1.29A1.31,1.31,0,0,0,51,378Z"/><path class="cls-5" d="M57.93,376.28v.64H56.57v3.73h-.79v-3.73H54.42v-.64Z"/><path class="cls-5" d="M59.39,376.28v1.48a5.2,5.2,0,0,1,.72,0c1,0,2,.3,2,1.47a1.24,1.24,0,0,1-.46,1,3.07,3.07,0,0,1-1.9.5,10,10,0,0,1-1.17-.06v-4.35Zm0,3.82a4.3,4.3,0,0,0,.58,0c.6,0,1.36-.19,1.36-.92s-.79-.92-1.37-.92a3.4,3.4,0,0,0-.57,0Z"/><path class="cls-5" d="M65,376.34a8.64,8.64,0,0,1,1.39-.1c.73,0,1.94.12,1.94,1.09a1,1,0,0,1-.91,1v0c.64.09,1.11.45,1.11,1.08,0,1.15-1.44,1.29-2.3,1.29-.49,0-1,0-1.23-.05Zm.75,3.79c.23,0,.39,0,.64,0,.53,0,1.33-.12,1.33-.76s-.63-.76-1.39-.76h-.58Zm0-2h.6c.58,0,1.19-.17,1.19-.68s-.38-.64-1.18-.64a5,5,0,0,0-.61,0Z"/><path class="cls-5" d="M72.64,380.49a3.08,3.08,0,0,1-1.25.25,2.08,2.08,0,0,1-2.18-2.23,2.22,2.22,0,0,1,2.35-2.32,2.62,2.62,0,0,1,1.1.23l-.18.61a1.84,1.84,0,0,0-.92-.2A1.51,1.51,0,0,0,70,378.48a1.5,1.5,0,0,0,1.52,1.63,2.2,2.2,0,0,0,1-.22Z"/><path class="cls-5" d="M74,378.61a1.41,1.41,0,0,0,1.5,1.52,2.81,2.81,0,0,0,1.21-.23l.13.57a3.61,3.61,0,0,1-1.45.27,2,2,0,0,1-2.14-2.2,2.12,2.12,0,0,1,2-2.36,1.86,1.86,0,0,1,1.81,2.06,2.73,2.73,0,0,1,0,.37Zm2.33-.57a1.13,1.13,0,0,0-1.1-1.29A1.33,1.33,0,0,0,74,378Z"/><path class="cls-5" d="M80.72,376.28v1.9h.19l1.64-1.9h1l-1.9,2c.7.07,1.12.54,1.47,1.32a9.06,9.06,0,0,0,.46,1.07h-.82a5.09,5.09,0,0,1-.41-.89,1.41,1.41,0,0,0-1.44-1h-.16v1.92h-.78v-4.37Z"/><path class="cls-5" d="M88.15,378.43A2.14,2.14,0,0,1,86,380.75a2.08,2.08,0,0,1-2.09-2.25,2.13,2.13,0,0,1,2.16-2.32A2.07,2.07,0,0,1,88.15,378.43Zm-3.46.05c0,.95.55,1.67,1.32,1.67s1.33-.71,1.33-1.69c0-.74-.37-1.68-1.31-1.68S84.69,377.65,84.69,378.48Z"/><path class="cls-5" d="M89.2,376.28h1l.79,2.2c.11.33.3.86.4,1.2h0c.1-.32.34-1,.51-1.49l.71-1.91h1l.31,4.37h-.76l-.1-2.08c0-.47-.06-1-.08-1.57h0c-.12.4-.23.75-.48,1.42l-.84,2.2H91l-.78-2.15c-.13-.42-.32-1.05-.43-1.46h0c0,.52,0,1.1-.07,1.57l-.11,2.07h-.73Z"/><path class="cls-5" d="M95,376.28h1l.79,2.2c.11.33.3.86.4,1.2h0c.1-.32.34-1,.51-1.49l.71-1.91h1l.31,4.37h-.76l-.1-2.08c0-.47-.06-1-.08-1.57h0c-.12.4-.23.75-.48,1.42l-.84,2.2h-.57L96,378.47c-.13-.42-.32-1.05-.43-1.46h0c0,.52,0,1.1-.07,1.57l-.11,2.07h-.73Z"/><path class="cls-5" d="M101.11,378.61a1.41,1.41,0,0,0,1.5,1.52,2.81,2.81,0,0,0,1.21-.23l.13.57a3.61,3.61,0,0,1-1.45.27,2,2,0,0,1-2.15-2.2,2.13,2.13,0,0,1,2.05-2.36,1.86,1.86,0,0,1,1.81,2.06,2.73,2.73,0,0,1,0,.37Zm2.33-.57a1.13,1.13,0,0,0-1.1-1.29,1.32,1.32,0,0,0-1.22,1.29Z"/><path class="cls-5" d="M106,376.28V378H108v-1.76h.78v4.37H108v-2H106v2h-.78v-4.37Z"/><path class="cls-5" d="M113,376.28v.64h-1.36v3.73h-.79v-3.73h-1.36v-.64Z"/><path class="cls-5" d="M116.08,380.65l-.07-.55h0a1.66,1.66,0,0,1-1.34.65,1.24,1.24,0,0,1-1.33-1.26c0-1.05.93-1.63,2.62-1.62v-.09a.9.9,0,0,0-1-1,2.17,2.17,0,0,0-1.14.33l-.18-.53a2.77,2.77,0,0,1,1.44-.39c1.33,0,1.66.92,1.66,1.79v1.63a5.66,5.66,0,0,0,.07,1Zm-.12-2.23c-.87,0-1.85.14-1.85,1a.7.7,0,0,0,.75.76,1.07,1.07,0,0,0,1-.73.74.74,0,0,0,0-.25Z"/><path class="cls-5" d="M118,377.71c0-.56,0-1,0-1.43h.71l0,.75h0a1.73,1.73,0,0,1,1.56-.85,2,2,0,0,1,1.84,2.22,2.07,2.07,0,0,1-2,2.35,1.51,1.51,0,0,1-1.34-.69h0v2.37H118Zm.79,1.16a1.66,1.66,0,0,0,0,.33,1.22,1.22,0,0,0,1.19.93c.83,0,1.32-.69,1.32-1.69s-.46-1.62-1.3-1.62a1.27,1.27,0,0,0-1.2,1,1.77,1.77,0,0,0,0,.32Z"/><path class="cls-5" d="M123.86,376.28v1.84c0,.7,0,1.13,0,1.75h0c.26-.53.41-.84.7-1.34l1.36-2.26h.93v4.37h-.76V378.8c0-.71,0-1.08.06-1.79h0c-.28.56-.47.91-.72,1.36-.42.67-.89,1.51-1.36,2.28h-.91v-4.37Z"/><path class="cls-5" d="M128.86,376.28v1.84c0,.7,0,1.13-.05,1.75h0c.26-.53.41-.84.7-1.34l1.36-2.26h.93v4.37h-.75V378.8c0-.71,0-1.08,0-1.79h0c-.28.56-.47.91-.72,1.36-.41.67-.89,1.51-1.36,2.28h-.91v-4.37Z"/><path class="cls-5" d="M136.75,374.39a6,6,0,0,0-1.13,3.69,6.08,6.08,0,0,0,1.13,3.66h-.62a5.81,5.81,0,0,1-1.18-3.66,6,6,0,0,1,1.18-3.69Z"/><path class="cls-5" d="M137.34,380.65v-.49l.62-.6c1.5-1.43,2.17-2.18,2.18-3.07a1,1,0,0,0-1.16-1.14,2,2,0,0,0-1.24.49l-.26-.56a2.61,2.61,0,0,1,1.66-.59,1.65,1.65,0,0,1,1.8,1.7c0,1.08-.79,2-2,3.15l-.47.43v0h2.63v.66Z"/><path class="cls-5" d="M145.46,375.45h-2.23L143,377a2.87,2.87,0,0,1,.48,0,2.44,2.44,0,0,1,1.26.32,1.68,1.68,0,0,1,.84,1.51,2,2,0,0,1-2.18,2,2.87,2.87,0,0,1-1.46-.36l.19-.61a2.61,2.61,0,0,0,1.26.33,1.3,1.3,0,0,0,1.39-1.27c0-.76-.52-1.3-1.69-1.3a5.73,5.73,0,0,0-.81.06l.38-2.81h2.8Z"/><path class="cls-5" d="M146.36,381.74a6.11,6.11,0,0,0,1.14-3.69,6,6,0,0,0-1.14-3.66H147a5.72,5.72,0,0,1,1.19,3.67,5.84,5.84,0,0,1-1.19,3.68Z"/><rect class="cls-10" x="15.69" y="43.51" width="250.39" height="250.59"/><path class="cls-11" d="M191.66,140.52a14.07,14.07,0,0,0-10.32-4.28H167.78l-2.91-7.75a10.61,10.61,0,0,0-4-4.83,10.15,10.15,0,0,0-5.9-2H125.82a10.15,10.15,0,0,0-5.9,2,10.61,10.61,0,0,0-4,4.83l-2.91,7.75H99.49a14.61,14.61,0,0,0-14.6,14.61v43.72a14.6,14.6,0,0,0,14.6,14.6h81.85a14.58,14.58,0,0,0,14.59-14.6V150.85A14.08,14.08,0,0,0,191.66,140.52Zm-35,45.15a22.93,22.93,0,1,1-32.42-32.44,22.93,22.93,0,1,1,32.42,32.44Z"/><path class="cls-11" d="M140.41,153a16.46,16.46,0,1,0,11.6,4.82A15.78,15.78,0,0,0,140.41,153Z"/></svg>