<?xml version="1.0" encoding="iso-8859-1"?>
<!-- Generator: Adobe Illustrator 19.0.0, SVG Export Plug-In . SVG Version: 6.00 Build 0)  -->
<svg version="1.1" id="Capa_1" xmlns="http://www.w3.org/2000/svg" xmlns:xlink="http://www.w3.org/1999/xlink" x="0px" y="0px"
	 viewBox="0 0 468.293 468.293" style="enable-background:new 0 0 468.293 468.293;" xml:space="preserve">
<path style="fill:#44C4A1;" d="M69.802,85.366L69.802,85.366c-33.044,73.512,4.672,143.683,84.241,156.732l0,0
	C187.082,168.587,149.367,98.416,69.802,85.366z"/>
<g>
	<path style="fill:#3EA69B;" d="M132.333,201.706c-2.01,1.079-4.513,0.327-5.592-1.681l-37.47-69.713
		c-1.08-2.008-0.326-4.509,1.685-5.588c2.01-1.079,4.513-0.327,5.592,1.681l37.47,69.713
		C135.097,198.126,134.344,200.627,132.333,201.706z"/>
</g>
<path style="fill:#44C4A1;" d="M192.443,0L192.443,0c-47.512,65.104-25.099,141.551,50.06,170.749l0,0
	C290.01,105.646,267.598,29.199,192.443,0z"/>
<g>
	<path style="fill:#3EA69B;" d="M229.602,126.745c-2.19,0.641-4.483-0.612-5.124-2.8l-22.266-75.948
		c-0.642-2.188,0.612-4.479,2.802-5.12c2.19-0.641,4.483,0.612,5.124,2.8l22.266,75.948
		C233.046,123.813,231.792,126.104,229.602,126.745z"/>
</g>
<path style="fill:#44C4A1;" d="M197.439,209.474L197.439,209.474c72.933-34.301,143.743,2.205,158.157,81.538l0,0
	C282.665,325.309,211.856,288.803,197.439,209.474z"/>
<g>
	<path style="fill:#3EA69B;" d="M314.838,269.999c1.045-2.029,0.249-4.517-1.777-5.562l-70.347-36.267
		c-2.027-1.045-4.514-0.248-5.559,1.78c-1.045,2.029-0.249,4.518,1.777,5.562l70.347,36.267
		C311.306,272.824,313.793,272.027,314.838,269.999z"/>
</g>
<path style="fill:#44C4A1;" d="M95.052,327.772L95.052,327.772c60.827-52.877,138.904-37.047,174.39,35.357l0,0
	C208.616,416.001,130.539,400.172,95.052,327.772z"/>
<g>
	<path style="fill:#3EA69B;" d="M224.5,354.017c0.452-2.237-0.991-4.415-3.226-4.868l-77.567-15.726
		c-2.235-0.453-4.411,0.991-4.863,3.228c-0.452,2.237,0.991,4.415,3.226,4.868l77.567,15.726
		C221.871,357.698,224.048,356.254,224.5,354.017z"/>
</g>
<path style="fill:#44C4A1;" d="M410.461,68.089L410.461,68.089c-67.436-20.712-124.277,19.68-126.958,90.218l0,0
	C350.938,179.015,407.778,138.623,410.461,68.089z"/>
<g>
	<path style="fill:#3EA69B;" d="M316.222,135.056c-1.156-1.629-0.775-3.884,0.852-5.041l56.47-40.128
		c1.627-1.156,3.881-0.773,5.037,0.856c1.156,1.629,0.775,3.884-0.852,5.041l-56.47,40.128
		C319.632,137.068,317.378,136.685,316.222,135.056z"/>
</g>
<path style="fill:#64798A;" d="M142.861,468.293c-2.318,0-4.637-0.837-6.472-2.535c-44.838-41.54-63.584-85.281-55.73-130.008
	C100,225.647,274.276,150.905,281.69,147.78c4.841-2.04,10.427,0.229,12.473,5.065c2.046,4.848-0.223,10.433-5.065,12.479
	c-1.723,0.725-172.162,73.838-189.686,173.742c-6.658,37.939,10.142,75.865,49.921,112.718c3.856,3.577,4.085,9.602,0.515,13.458
	C147.969,467.27,145.415,468.293,142.861,468.293z"/>
<g>
</g>
<g>
</g>
<g>
</g>
<g>
</g>
<g>
</g>
<g>
</g>
<g>
</g>
<g>
</g>
<g>
</g>
<g>
</g>
<g>
</g>
<g>
</g>
<g>
</g>
<g>
</g>
<g>
</g>
</svg>
